<svg xmlns="http://www.w3.org/2000/svg" viewBox="0 0 977.78 945.69"><defs><style>.cls-1{fill:#e20613;}.cls-2{fill:#fff;}.cls-3{fill:#fcfcfc;}.cls-4{fill:#c6c6c5;}.cls-5{fill:#fffffd;stroke:#fff;stroke-miterlimit:10;stroke-width:4px;}</style></defs><g id="Capa_1" data-name="Capa 1"><path class="cls-1" d="M604.63,297H754.24a88.21,88.21,0,0,1,34.24,6.65,85.57,85.57,0,0,1,28.26,19.12Q829,335.21,836.19,355t7.15,44.39a134.79,134.79,0,0,1-2.66,28.26q-2.67,12.3-5.32,16.62l-2.66,4a42.49,42.49,0,0,0,2.82,3.49,85,85,0,0,1,6.65,9.81,148.62,148.62,0,0,1,8.31,15.62,106.8,106.8,0,0,1,6.65,20.78A114.94,114.94,0,0,1,860,523.38q0,25.59-7.15,46.21T833.53,603a85,85,0,0,1-27.6,19.61,81.12,81.12,0,0,1-33.08,6.82H604.63Zm91,84.76v44.64c0,2.33,1.17,3.49,3.49,3.49h31.39a26.19,26.19,0,0,0,25.81-26,24.43,24.43,0,0,0-7.67-18.13,25.09,25.09,0,0,0-18.14-7.5H699.15C696.83,378.24,695.66,379.4,695.66,381.73Zm50.58,182.76a25.61,25.61,0,0,0,25.81-25.64,25.29,25.29,0,0,0-7.5-18.31,24.66,24.66,0,0,0-18.31-7.67H699.15c-2.32,0-3.49,1.17-3.49,3.49V561c0,2.33,1.17,3.49,3.49,3.49Z"/><path class="cls-2" d="M157.8,185.25l-15.5,15.17,5,9.41-13.94,13.65L106.69,163l14.89-14.58,59.86,27.91-14.29,14Zm-12.19-6.78-20.43-11.11L135.91,188Z"/><path class="cls-2" d="M147.71,124.51l22.58-17.21q6.68-5.08,12.16-6.41a22.13,22.13,0,0,1,10.76,0,26.9,26.9,0,0,1,9.9,4.92,46.07,46.07,0,0,1,8.47,8.6q6,7.89,7.52,13.6a25.48,25.48,0,0,1,.57,11.07,20.35,20.35,0,0,1-3.87,9.13,44.19,44.19,0,0,1-8,8.24L185.2,173.69Zm23.69-.44,20.48,26.87,3.72-2.84q4.77-3.63,6-6.22a9,9,0,0,0,.34-6.1q-.87-3.5-5.36-9.4-6-7.81-10.71-8.76t-10.65,3.56Z"/><path class="cls-2" d="M237.55,134.63,206.74,81l27.61-15.86q7.68-4.42,12.49-5.43a14.36,14.36,0,0,1,9.35,1.12,17,17,0,0,1,7.48,7.25A16.57,16.57,0,0,1,264,85.15a23.49,23.49,0,0,1-4.6,5.46,13,13,0,0,1,9.71.79,25.12,25.12,0,0,1,4.24,2l16.95,10.93-18.72,10.75-18.27-11.29a14.36,14.36,0,0,0-5.37-2.41,8,8,0,0,0-4.77,1.09l-1.47.84,12.51,21.76Zm-1.69-41.45,7-4a28.77,28.77,0,0,0,4-3.26,5,5,0,0,0,1.72-3.22,6.25,6.25,0,0,0-4.68-6.75c-1.63-.3-3.95.43-7,2.16l-7.27,4.18Z"/><path class="cls-2" d="M270.62,46.44l17.51-7.75,25,56.53L295.66,103Z"/><path class="cls-2" d="M357.25,68.82l-20.68,6.54.2,10.64-18.6,5.88,3.52-66,19.87-6.28,40.79,52-19.07,6Zm-7.81-11.55L336.23,38.13l.26,23.23Z"/><path class="cls-2" d="M377.23,9.84l17.65-2.59,28,30.45-5-33.85,17.82-2.62,9,61.17L426.92,65,399.07,34.81,404,68.4,386.24,71Z"/><path class="cls-2" d="M487.39,0l35.74,1.35q8.94.35,13.55,4.94a14.33,14.33,0,0,1,4.37,11.14,13.8,13.8,0,0,1-3.77,9.27,15.12,15.12,0,0,1-6.81,3.88q6.6,1.86,9.59,5.87a15.17,15.17,0,0,1,2.77,9.92,16.9,16.9,0,0,1-2.56,8.56,16.57,16.57,0,0,1-6.34,5.84,20.37,20.37,0,0,1-7.33,1.75A80.52,80.52,0,0,1,518,63l-33-1.24Zm18.34,25,8.31.32q4.47.16,6.27-1.31a5.58,5.58,0,0,0,1.92-4.38,5.28,5.28,0,0,0-1.59-4.28c-1.13-1.05-3.14-1.64-6-1.75l-8.43-.32Zm-.91,24.28,9.73.37c3.29.12,5.63-.37,7-1.49a5.85,5.85,0,0,0,2.2-4.62A5.44,5.44,0,0,0,521.94,39c-1.29-1.16-3.61-1.81-7-1.93l-9.69-.37Z"/><path class="cls-2" d="M587.44,63,566.2,58.59l-5,9.38-19.1-4L577.45,8.2l20.4,4.26L608,77.73l-19.59-4.08Zm-1.15-13.9L584.15,26,573,46.35Z"/><path class="cls-2" d="M633,21.31,659.72,31q7.89,2.86,12,6.77a22.06,22.06,0,0,1,5.8,9.06,27.2,27.2,0,0,1,1.22,11A46.18,46.18,0,0,1,676,69.59q-3.37,9.31-7.36,13.68a25.42,25.42,0,0,1-9,6.47,20.42,20.42,0,0,1-9.76,1.68,44.29,44.29,0,0,1-11.28-2.3l-26.68-9.69ZM646.22,41,634.69,72.75l4.4,1.6c3.75,1.36,6.58,1.91,8.46,1.66a9,9,0,0,0,5.31-3q2.49-2.62,5-9.6,3.35-9.24,1.58-13.74t-8.76-7Z"/><path class="cls-2" d="M700.6,47.81l17.24,8.34-26.93,55.66-17.24-8.34Z"/><path class="cls-2" d="M733.85,64.14,750.23,74l-24,40,25.57,15.34L744,142.34l-42-25.17Z"/><path class="cls-2" d="M787.13,97.26l15.21,11.55-28.18,37.12,23.75,18-9.21,12.12-39-29.58Z"/><path class="cls-2" d="M828.7,199.53l-15.71-15-9.22,5.32-14.13-13.46,59.47-28.74,15.09,14.37-25.82,60.8-14.48-13.8Zm6.35-12.41,10.39-20.8-20.23,11.43Z"/><path class="cls-3" d="M333.43,306.3c2.87,0,4.85,1.44,6,4.31L456.61,626.83a6.24,6.24,0,0,1,.33,2v2.31a6.22,6.22,0,0,1-6.29,6.29H369.19a5.65,5.65,0,0,1-6-4.3l-17.55-47.35h-106l-17.88,47.35a5.65,5.65,0,0,1-6,4.3H134.76a6.49,6.49,0,0,1-4.8-1.82,6,6,0,0,1-1.83-4.47v-2.31a9.7,9.7,0,0,1,.33-2.32L245.68,310.61q1.65-4.31,6-4.31Zm-63.57,198h45.69l-23.18-61.25Z"/><path class="cls-4" d="M429.77,481s43.28,8.14,55,3.82,20.42-56.37-18-65.36-49.12-6.08-69.55,18.24C397.18,437.74,389.4,467.91,429.77,481Z"/><path class="cls-4" d="M396.58,388.13v42.8s14.22-26.75,56.05-21.4C452.63,409.53,431.48,370.63,396.58,388.13Z"/><path class="cls-4" d="M392.81,383.61v52.67s-58.37,2.55-57.39-31.31S392.81,383.61,392.81,383.61Z"/><path class="cls-4" d="M303.8,417.32s27.22,4.75,31.6-2.49c0,0,6.83,27.29,53.52,25.34C388.92,440.17,326.18,493.67,303.8,417.32Z"/><path class="cls-4" d="M380.16,313.24c1.67-.54-64.68,55.51-68.09,95.6,0,0-22.37,3.61-31.61-17.79S299.43,339,380.16,313.24Z"/><path class="cls-4" d="M319.26,407.27s19.07-57.07,55.06-78c0,0-19,22.37-19,27.23s7.29,13.8-15.08,27.09c0,0-8.95,7.29-10.8,23.66Z"/><path class="cls-4" d="M385,313.23c2,.49,19.94,0,19.94,0s26.15,19.46,19.64,37.46l-28,10.46L385,347.28s2.92-12.47-4.83-14.1L386,323l-9.24,1Z"/><path class="cls-4" d="M388.92,444.06s9.16,45.72,31.81,55c0,0,.17,25.23,3.87,33.05,0,0-46.87-23.68-47.84-76.51l3.43-5.09s6.06,36.39,21,46.12c0,0-15.76-28.38-16.66-44.41Z"/><path class="cls-4" d="M490.08,491.24l4.6,6.32-2.3,14.67-5.22,16H455.55S443.87,498.54,490.08,491.24Z"/><path class="cls-4" d="M461.87,533.27l24.8-1.2,7.84,9.27-2,8.75-6.81,13.82s-32.3,3.2-31.47-9.93S461.87,533.27,461.87,533.27Z"/><path class="cls-4" d="M457.49,586.08c-1-1.67-2.92-19.94,29.18-19L494.51,578v31.42S471.6,609.42,457.49,586.08Z"/><path class="cls-4" d="M421.5,486.12s26.75,8,46.2,5.12c0,0-28,12-15.07,42,0,0-12.39,13.54,1.58,31l-4,16.47s-18-7.78-15.08-40.37c0,0-8.74-6.81-9.48-18.48l4.62.49s3.4,13.56,14.34,9.7c0,0-10-5.81-10.45-14.57,0,0-10.68,1-8.51-12.64l5.1,1.94s-1.83,8.76,14.89,9.73c0,0-11-3.4-9.54-11.67,0,0-10.78-1.25-11.49-13.62l8.09,3.41s-1.95,6.8,3.56,7.78l2.76.81s-.81,3.4,8.11,2.75c0,0-10.22-3.56-9.08-10.86Z"/><path class="cls-4" d="M462.52,414.83s7.8-6.43,11.84-14.54c0,0,13.12,12.65,14.42,19.13V409.07l12.64.79v8.27s5.52-12.32,15.57-17.84c0,0,6.81,11.89,11,14.54,0,0-18.48,2-32.75,20.16A43.06,43.06,0,0,0,462.52,414.83Z"/><path class="cls-4" d="M563.78,481s-43.29,8.14-55,3.82-20.43-56.37,18-65.36,49.12-6.08,69.54,18.24C596.36,437.74,604.15,467.91,563.78,481Z"/><path class="cls-4" d="M597,388.13v42.8s-14.22-26.75-56.05-21.4C540.92,409.53,562.07,370.63,597,388.13Z"/><path class="cls-4" d="M600.74,383.61v52.67s58.36,2.55,57.39-31.31S600.74,383.61,600.74,383.61Z"/><path class="cls-4" d="M689.74,417.32s-27.21,4.75-31.6-2.49c0,0-6.82,27.29-53.51,25.34C604.63,440.17,667.37,493.67,689.74,417.32Z"/><path class="cls-4" d="M613.39,313.24c-1.67-.54,64.68,55.51,68.09,95.6,0,0,22.37,3.61,31.61-17.79S694.12,339,613.39,313.24Z"/><path class="cls-4" d="M674.29,407.27s-19.08-57.07-55.07-78c0,0,19,22.37,19,27.23s-7.3,13.8,15.08,27.09c0,0,8.94,7.29,10.79,23.66Z"/><path class="cls-4" d="M608.52,313.23c-1.94.49-19.94,0-19.94,0s-26.14,19.46-19.64,37.46l28,10.46,11.55-13.87s-2.91-12.47,4.84-14.1L607.55,323l9.24,1Z"/><path class="cls-4" d="M604.63,444.06s-9.16,45.72-31.82,55c0,0-.16,25.23-3.87,33.05,0,0,46.88-23.68,47.85-76.51l-3.43-5.09s-6.06,36.39-21,46.12c0,0,15.75-28.38,16.66-44.41Z"/><path class="cls-4" d="M503.47,491.24l-4.6,6.32,2.3,14.67,5.22,16H538S549.67,498.54,503.47,491.24Z"/><path class="cls-4" d="M531.68,533.27l-24.8-1.2L499,541.34l2,8.75,6.81,13.82s32.3,3.2,31.47-9.93S531.68,533.27,531.68,533.27Z"/><path class="cls-4" d="M536.06,586.08c1-1.67,2.91-19.94-29.18-19L499,578v31.42S522,609.42,536.06,586.08Z"/><path class="cls-4" d="M572.05,486.12s-26.75,8-46.21,5.12c0,0,28,12,15.08,42,0,0,12.39,13.54-1.59,31l4,16.47s18-7.78,15.08-40.37c0,0,8.73-6.81,9.47-18.48l-4.61.49s-3.4,13.56-14.35,9.7c0,0,10-5.81,10.46-14.57,0,0,10.68,1,8.5-12.64l-5.09,1.94s1.83,8.76-14.89,9.73c0,0,11-3.4,9.54-11.67,0,0,10.77-1.25,11.48-13.62l-8.08,3.41s1.95,6.8-3.57,7.78l-2.75.81s.81,3.4-8.11,2.75c0,0,10.21-3.56,9.08-10.86Z"/><path class="cls-4" d="M531.43,333.82s6.06-46.4-35.51-47.54v0h-.66v0c-41.56,1.14-35.5,47.54-35.5,47.54s-6.79-3.07-5.92,4.38.88,23.89,5.92,22.8c0,0,12.94,45,36.16,42.81C519.15,406,531.43,361,531.43,361c5,1.09,5-15.34,5.91-22.8S531.43,333.82,531.43,333.82Z"/><path class="cls-5" d="M940.77,282.5s92.06,182.92-22.41,455.34c0,0-7.86,5.15-5.12-6s100.55-233.35,21.41-446C934.65,285.86,931.82,269.35,940.77,282.5Z"/><path class="cls-5" d="M37,283.12S-55.06,466,59.42,738.46c0,0,7.86,5.16,5.12-6S-36,499.13,43.13,286.48C43.13,286.48,46,270,37,283.12Z"/><path class="cls-2" d="M195.24,790.29a1.18,1.18,0,0,1,.51.73,1.11,1.11,0,0,1-.2.88l-6.46,9.44a1.13,1.13,0,0,1-.74.47,1.12,1.12,0,0,1-.88-.19l-17.35-11.89-4.62,6.74,15.08,10.33a1.1,1.1,0,0,1,.5.73,1,1,0,0,1-.16.83l-6.5,9.48a1,1,0,0,1-.71.45,1.15,1.15,0,0,1-.87-.21l-15.07-10.32L146,824.88a1.06,1.06,0,0,1-.77.48,1.28,1.28,0,0,1-.89-.23l-12.24-8.38a1.23,1.23,0,0,1-.55-.76,1.06,1.06,0,0,1,.19-.88L163,769.58a1.11,1.11,0,0,1,.75-.5,1.3,1.3,0,0,1,.92.25Z"/><path class="cls-2" d="M181.27,849l-12.62-7.78a1.26,1.26,0,0,1-.6-.74,1.08,1.08,0,0,1,.15-.88l29-47a1.09,1.09,0,0,1,.72-.53,1.3,1.3,0,0,1,.93.2l12.62,7.78a1.28,1.28,0,0,1,.57.72,1,1,0,0,1-.13.9l-28.94,47a1,1,0,0,1-.75.52A1.3,1.3,0,0,1,181.27,849Zm21.91-55.52-1.39-7.47a1,1,0,0,1,.18-.83,1,1,0,0,1,.73-.43l17.89-2.29a1.51,1.51,0,0,1,.94.28,1.1,1.1,0,0,1,.49.81l1.1,9.93a1,1,0,0,1-.31.86,1.33,1.33,0,0,1-.88.37l-17.56-.22A1.1,1.1,0,0,1,203.18,793.52Z"/><path class="cls-2" d="M245.92,821.9l-6.46,9.24a1.17,1.17,0,0,1-.81.44,1.13,1.13,0,0,1-.91-.27,59.33,59.33,0,0,0-9.2-6.62,9.82,9.82,0,0,0-3.38-1.32,4.67,4.67,0,0,0-2.57.19,6.51,6.51,0,0,0-1.5.88,3.27,3.27,0,0,0-.78.88,4,4,0,0,0-.4,1.23,7.07,7.07,0,0,0,1.23,5,16,16,0,0,0,3,3.43,20.88,20.88,0,0,1,3.78,4.53,22.86,22.86,0,0,1,2.51,5.7,16.67,16.67,0,0,1,.45,6.66,19,19,0,0,1-2.33,7q-4.06,7.34-10.87,8.2T200,861.87A117.5,117.5,0,0,1,189,855a1.22,1.22,0,0,1-.45-.71,1.17,1.17,0,0,1,.12-.86l6.46-9.23a1.06,1.06,0,0,1,.82-.47,1.24,1.24,0,0,1,1,.33,57.48,57.48,0,0,0,8.85,6.35,10.1,10.1,0,0,0,3.44,1.35,4.42,4.42,0,0,0,2.53-.18,5.93,5.93,0,0,0,1.47-.89,3.38,3.38,0,0,0,.79-.91,3.65,3.65,0,0,0,.4-1.22,8,8,0,0,0,0-2,7.23,7.23,0,0,0-1.17-3,16.58,16.58,0,0,0-3-3.43,19.9,19.9,0,0,1-3.81-4.54,23.28,23.28,0,0,1-2.49-5.66,16.47,16.47,0,0,1-.49-6.67,19,19,0,0,1,2.32-7q3.9-7,11.41-7.7t17.09,4.64q5.16,2.87,11.37,7.16a1.19,1.19,0,0,1,.45.71A1.25,1.25,0,0,1,245.92,821.9Z"/><path class="cls-2" d="M239.67,880.75l-13.28-6.6a1.28,1.28,0,0,1-.66-.68,1.1,1.1,0,0,1,.07-.9l24.56-49.42a1.07,1.07,0,0,1,.67-.6,1.26,1.26,0,0,1,.94.11l13.28,6.6a1.33,1.33,0,0,1,.63.67,1.08,1.08,0,0,1,0,.91l-24.56,49.42a1.05,1.05,0,0,1-.7.59A1.36,1.36,0,0,1,239.67,880.75Z"/><path class="cls-2" d="M294.45,883.38l7.49,12.74a1.12,1.12,0,0,1,.1.86.94.94,0,0,1-.54.64,32.26,32.26,0,0,1-13.44,3.22,33.46,33.46,0,0,1-14.1-2.75A34,34,0,0,1,263.33,891a32.73,32.73,0,0,1-7-9.91,30.11,30.11,0,0,1-2.59-11.53,27.86,27.86,0,0,1,9.13-21.45A29.86,29.86,0,0,1,273,842a33,33,0,0,1,12-1.87,34.35,34.35,0,0,1,24.22,11,31.78,31.78,0,0,1,7,11.85,1.1,1.1,0,0,1-.11.89,1.13,1.13,0,0,1-.69.52L301,867.75a1.19,1.19,0,0,1-.87-.09,1.08,1.08,0,0,1-.56-.64,17.46,17.46,0,0,0-3.34-5.42,14.49,14.49,0,0,0-5.19-3.77,14.81,14.81,0,0,0-11.2-.39,13.11,13.11,0,0,0-7.6,17.88,15.15,15.15,0,0,0,14.38,8.93,16.9,16.9,0,0,0,6.28-1.39,1,1,0,0,1,.85,0A1.18,1.18,0,0,1,294.45,883.38Z"/><path class="cls-2" d="M335.21,860a34.7,34.7,0,0,1,24.08,7.7,33.21,33.21,0,0,1,8,9.27,30.24,30.24,0,0,1,3.7,11.24,27.11,27.11,0,0,1-1.08,11.87,27.46,27.46,0,0,1-6,10.33,30.2,30.2,0,0,1-9.55,7,32.68,32.68,0,0,1-11.84,2.91,35.1,35.1,0,0,1-24.09-7.69,32.86,32.86,0,0,1-8-9.25,30,30,0,0,1-3.7-11.26,27.67,27.67,0,0,1,7.1-22.21,30.41,30.41,0,0,1,9.54-7A33.32,33.32,0,0,1,335.21,860Zm-9.37,36.21a15.85,15.85,0,0,0,20.1,6.42,13,13,0,0,0,5.91-18.51,15.85,15.85,0,0,0-20.1-6.42,13,13,0,0,0-5.91,18.51Z"/><path class="cls-2" d="M416.35,918.23l9.91,11a1.13,1.13,0,0,1,.28.82,1,1,0,0,1-.4.74,32.27,32.27,0,0,1-12.51,5.87,33.44,33.44,0,0,1-14.37.17A33.87,33.87,0,0,1,387.42,932a32.54,32.54,0,0,1-8.85-8.28A30.11,30.11,0,0,1,373.71,913a27.94,27.94,0,0,1,4.59-22.86,30.09,30.09,0,0,1,8.64-8,32.82,32.82,0,0,1,11.37-4.26,34.24,34.24,0,0,1,25.93,5.83,31.77,31.77,0,0,1,9.25,10.18,1.14,1.14,0,0,1,.07.9,1.09,1.09,0,0,1-.57.64l-13.36,6.23a1.17,1.17,0,0,1-.86.09,1.05,1.05,0,0,1-.68-.52,17.71,17.71,0,0,0-4.37-4.63,14.53,14.53,0,0,0-5.84-2.64,14.77,14.77,0,0,0-11.05,1.89A13.11,13.11,0,0,0,393,914.83a15.13,15.13,0,0,0,15.9,5.83,16.72,16.72,0,0,0,5.86-2.63,1.08,1.08,0,0,1,.83-.22A1.26,1.26,0,0,1,416.35,918.23Z"/><path class="cls-2" d="M488.15,888.39a1.19,1.19,0,0,1,.8.38,1.08,1.08,0,0,1,.27.81l-3,34.42a27,27,0,0,1-1.36,6.49,22.08,22.08,0,0,1-3.31,6.06,21.36,21.36,0,0,1-5.37,5,22.93,22.93,0,0,1-7.93,3.07,36.34,36.34,0,0,1-10.57.49,35.87,35.87,0,0,1-10.29-2.3,23.54,23.54,0,0,1-7.28-4.38,21.09,21.09,0,0,1-4.46-5.87,21.71,21.71,0,0,1-2.21-6.54,26.66,26.66,0,0,1-.23-6.63l3-34.42a1,1,0,0,1,.41-.75,1.16,1.16,0,0,1,.85-.24l14.83,1.29a1.32,1.32,0,0,1,.84.39,1,1,0,0,1,.3.8l-3,34.71a11.89,11.89,0,0,0,.16,3.39,9.94,9.94,0,0,0,1.24,3.14,7.08,7.08,0,0,0,2.75,2.51,12.13,12.13,0,0,0,8.83.77,6.71,6.71,0,0,0,3.1-2,10.71,10.71,0,0,0,1.77-2.88,11.72,11.72,0,0,0,.78-3.3l3-34.71a1,1,0,0,1,.4-.75,1.17,1.17,0,0,1,.86-.24Z"/><path class="cls-2" d="M527.48,944.11a1.1,1.1,0,0,1-.33.83,1.17,1.17,0,0,1-.82.33l-34.33.42a1.23,1.23,0,0,1-.89-.3,1.08,1.08,0,0,1-.35-.83l-.69-55.19a1.14,1.14,0,0,1,.33-.84,1.26,1.26,0,0,1,.89-.32l14.83-.19a1.3,1.3,0,0,1,.86.31,1,1,0,0,1,.38.83l.53,42.94,18.21-.22a1.19,1.19,0,0,1,.89.3,1.06,1.06,0,0,1,.35.83Z"/><path class="cls-2" d="M562.42,885.85l.94,11.4a1,1,0,0,1-.31.81,1.26,1.26,0,0,1-.83.38l-13.43,1.11,3.49,42.51a1,1,0,0,1-.3.86,1.3,1.3,0,0,1-.83.39l-14.84,1.22a1.21,1.21,0,0,1-.85-.25,1.1,1.1,0,0,1-.41-.8L531.56,901l-13.43,1.1a1.26,1.26,0,0,1-.91-.24,1,1,0,0,1-.4-.74l-.94-11.41a1,1,0,0,1,.27-.85,1.26,1.26,0,0,1,.86-.39l44.09-3.62a1.26,1.26,0,0,1,.88.24A1.07,1.07,0,0,1,562.42,885.85Z"/><path class="cls-2" d="M613.71,874.67a1.14,1.14,0,0,1,.87.14,1,1,0,0,1,.49.69l6.84,33.87a26.94,26.94,0,0,1,.52,6.61,21.71,21.71,0,0,1-1.47,6.75,21.38,21.38,0,0,1-3.74,6.33,22.91,22.91,0,0,1-6.74,5.17A39.6,39.6,0,0,1,590,938.38a23.2,23.2,0,0,1-8.21-2.16,21,21,0,0,1-5.94-4.37,22.1,22.1,0,0,1-4-5.65,27.32,27.32,0,0,1-2.08-6.29L562.91,886a1,1,0,0,1,.18-.83,1.15,1.15,0,0,1,.75-.47l14.59-3a1.26,1.26,0,0,1,.91.14,1,1,0,0,1,.51.69l6.9,34.14a11.72,11.72,0,0,0,1.12,3.21,9.82,9.82,0,0,0,2.07,2.66,7,7,0,0,0,3.35,1.64,10.71,10.71,0,0,0,4.5-.06,10.9,10.9,0,0,0,4.18-1.69,6.8,6.8,0,0,0,2.41-2.81,10.42,10.42,0,0,0,.88-3.25,10.92,10.92,0,0,0-.18-3.4l-6.9-34.15a1,1,0,0,1,.18-.82,1.21,1.21,0,0,1,.75-.48Z"/><path class="cls-2" d="M666.33,897.18q9.24,5,13.29,16.07a1.14,1.14,0,0,1-.07.87,1.17,1.17,0,0,1-.74.61l-15.13,5a1.19,1.19,0,0,1-.89,0,1,1,0,0,1-.56-.63q-2.47-6.51-6.94-8.94a13.79,13.79,0,0,0-10.37-.9l4.62,14a1.08,1.08,0,0,1-.1.87,1.2,1.2,0,0,1-.71.6l-14.08,4.66a1.15,1.15,0,0,1-.95-.05,1.09,1.09,0,0,1-.57-.66l-17.61-53.21a1.08,1.08,0,0,1,.06-.9,1.25,1.25,0,0,1,.75-.58L644,864.78a19.61,19.61,0,0,1,7.18-1,16.35,16.35,0,0,1,12.44,6.66,27.11,27.11,0,0,1,4.19,8.18Q671.51,889.72,666.33,897.18Zm-30.06-14.09,3.84,11.62a.47.47,0,0,0,.69.32l6.72-2.22a6.18,6.18,0,0,0,3.72-3.14,7.32,7.32,0,0,0-3-9.17,6.11,6.11,0,0,0-4.86-.3l-6.72,2.22A.48.48,0,0,0,636.27,883.09Z"/><path class="cls-2" d="M699.58,904.82l-13.67,5.74a1.24,1.24,0,0,1-.94.05,1.07,1.07,0,0,1-.64-.63L663,859.09a1.09,1.09,0,0,1,0-.9,1.27,1.27,0,0,1,.7-.64l13.67-5.74a1.32,1.32,0,0,1,.92,0,1,1,0,0,1,.66.63l21.36,50.89a1,1,0,0,1,0,.91A1.23,1.23,0,0,1,699.58,904.82Z"/><path class="cls-2" d="M714.58,836l4,10.55a1.1,1.1,0,0,1-.09.91,1.05,1.05,0,0,1-.73.59,60.06,60.06,0,0,0-10.66,3.85,9.92,9.92,0,0,0-3,2.05,4.63,4.63,0,0,0-1.29,2.22,6.7,6.7,0,0,0-.13,1.74,3.28,3.28,0,0,0,.29,1.14,4.14,4.14,0,0,0,.79,1,7.17,7.17,0,0,0,1.65,1.1,7.44,7.44,0,0,0,3.13.69,16.17,16.17,0,0,0,4.52-.53,20.66,20.66,0,0,1,5.87-.56,22.73,22.73,0,0,1,6.12,1.16,16.49,16.49,0,0,1,5.75,3.39,19,19,0,0,1,4.45,5.87q3.75,7.51.61,13.61t-14.19,11.63a118.26,118.26,0,0,1-12,5.22,1.22,1.22,0,0,1-.84,0,1.14,1.14,0,0,1-.63-.59l-4-10.54a1.1,1.1,0,0,1,.08-1,1.29,1.29,0,0,1,.8-.59,58,58,0,0,0,10.25-3.71,10.22,10.22,0,0,0,3.06-2.07,4.53,4.53,0,0,0,1.28-2.19,6.25,6.25,0,0,0,.1-1.72,3.21,3.21,0,0,0-.31-1.16,3.56,3.56,0,0,0-.78-1,8.16,8.16,0,0,0-1.63-1.12,7.06,7.06,0,0,0-3.1-.7,16.17,16.17,0,0,0-4.52.52,19.7,19.7,0,0,1-5.9.58,24.05,24.05,0,0,1-6.07-1.14,16.6,16.6,0,0,1-5.78-3.38,18.81,18.81,0,0,1-4.49-5.89q-3.6-7.2.09-13.77t13.49-11.47q5.28-2.64,12.33-5.33a1.22,1.22,0,0,1,.84,0A1.19,1.19,0,0,1,714.58,836Z"/><path class="cls-2" d="M754.11,809.84a1.14,1.14,0,0,1,.52-.68l13.16-8.42a1.13,1.13,0,0,1,.87-.18,1.11,1.11,0,0,1,.73.52l29.75,46.48a1.07,1.07,0,0,1,.16.89,1.13,1.13,0,0,1-.52.71l-12.54,8a1.24,1.24,0,0,1-.87.18,1.11,1.11,0,0,1-.74-.52l-15-23.49L775.42,851a1,1,0,0,1-.52,1.35l-13.06,8.36a1,1,0,0,1-1.45-.1l-13.53-12.7,15,23.49a1,1,0,0,1,.13.9,1.25,1.25,0,0,1-.55.73L749,881a1.28,1.28,0,0,1-.92.22,1.09,1.09,0,0,1-.73-.52l-29.75-46.49a1.05,1.05,0,0,1-.17-.88,1.28,1.28,0,0,1,.58-.75l13.11-8.39a1.12,1.12,0,0,1,.83-.19q3.39.63,9.47,4a116.08,116.08,0,0,1,10.48,6.5l4.37,3.07c-.1-.53-.23-1.27-.41-2.23s-.45-2.73-.85-5.33-.71-5-1-7.26-.39-4.62-.42-7.11A23.54,23.54,0,0,1,754.11,809.84Z"/><path class="cls-2" d="M785.59,788.53a34.66,34.66,0,0,1,19.58-16,33.31,33.31,0,0,1,12.11-1.61,30.24,30.24,0,0,1,11.44,3,27.58,27.58,0,0,1,14.74,18,30.07,30.07,0,0,1,.69,11.84,32.77,32.77,0,0,1-4,11.52,35.06,35.06,0,0,1-19.59,16A32.74,32.74,0,0,1,808.47,833a30.14,30.14,0,0,1-11.46-3,27.66,27.66,0,0,1-14.75-18.06,30.27,30.27,0,0,1-.67-11.81A33.12,33.12,0,0,1,785.59,788.53Zm25.24,27.6a15.86,15.86,0,0,0,16.34-13.35,13,13,0,0,0-12.29-15,15.84,15.84,0,0,0-16.34,13.35,13,13,0,0,0,12.29,15Z"/></g></svg>