<svg id="Capa_1" data-name="Capa 1" xmlns="http://www.w3.org/2000/svg" viewBox="0 0 781 786.85"><defs><style>.cls-1,.cls-3,.cls-4{fill:#fff;}.cls-2{fill:#c6c6c5;}.cls-3{stroke:#fff;stroke-miterlimit:10;stroke-width:4px;}.cls-4{font-size:45.87px;font-family:moon_get-Heavy, "MOON GET!";font-weight:800;}</style></defs><path class="cls-1" d="M482.85,237H602.23a70.28,70.28,0,0,1,27.32,5.31,68.32,68.32,0,0,1,22.55,15.25q9.81,9.94,15.52,25.73t5.7,35.42a107.68,107.68,0,0,1-2.12,22.54Q669.07,351,667,354.48l-2.13,3.18c.36.53,1.11,1.46,2.26,2.79a66.79,66.79,0,0,1,5.3,7.82A119.3,119.3,0,0,1,679,380.74a85.38,85.38,0,0,1,5.3,16.58,91.71,91.71,0,0,1,2.26,20.29q0,20.43-5.71,36.88T665.5,481.15a68.18,68.18,0,0,1-22,15.65,64.78,64.78,0,0,1-26.4,5.44H482.85Zm72.64,67.63v35.62a2.46,2.46,0,0,0,2.79,2.78h25a19.74,19.74,0,0,0,14.47-6.12,20,20,0,0,0,6.13-14.61,19.5,19.5,0,0,0-6.13-14.47,20,20,0,0,0-14.47-6h-25A2.46,2.46,0,0,0,555.49,304.59Zm40.36,145.83A20.42,20.42,0,0,0,616.44,430a20.2,20.2,0,0,0-6-14.62,19.69,19.69,0,0,0-14.61-6.12H558.28a2.46,2.46,0,0,0-2.79,2.78v35.63a2.46,2.46,0,0,0,2.79,2.78Z"/><path class="cls-1" d="M126.32,147.81,114,159.92l4,7.5-11.12,10.9L85.53,130.09l11.88-11.63,47.77,22.27-11.4,11.17Zm-9.73-5.41-16.3-8.86L108.85,150Z"/><path class="cls-1" d="M118.27,99.35l18-13.73A27,27,0,0,1,146,80.51a17.42,17.42,0,0,1,8.58,0,21.52,21.52,0,0,1,7.9,3.92,36.42,36.42,0,0,1,6.76,6.87q4.78,6.29,6,10.84a20.19,20.19,0,0,1,.45,8.84,16.22,16.22,0,0,1-3.08,7.28,35.34,35.34,0,0,1-6.41,6.58l-18,13.73Zm18.9-.35,16.34,21.43,3-2.26c2.53-1.93,4.12-3.59,4.76-5a7.14,7.14,0,0,0,.27-4.86c-.46-1.87-1.88-4.37-4.28-7.51q-4.75-6.24-8.54-7t-8.5,2.84Z"/><path class="cls-1" d="M190,107.43,165.36,64.65l22-12.66a36.88,36.88,0,0,1,10-4.33,11.51,11.51,0,0,1,7.47.89,13.64,13.64,0,0,1,6,5.79,13.22,13.22,0,0,1,.25,13.6,18.53,18.53,0,0,1-3.67,4.36,15.16,15.16,0,0,1,4.34-.4,15.61,15.61,0,0,1,3.41,1,19.19,19.19,0,0,1,3.38,1.6L232,83.24l-14.94,8.59-14.58-9a11.58,11.58,0,0,0-4.29-1.93,6.41,6.41,0,0,0-3.8.87l-1.17.68,10,17.36ZM188.6,74.35l5.58-3.2a23.32,23.32,0,0,0,3.16-2.6A4,4,0,0,0,198.71,66a4.48,4.48,0,0,0-.59-3A4.55,4.55,0,0,0,195,60.59c-1.3-.23-3.16.34-5.57,1.73l-5.81,3.34Z"/><path class="cls-1" d="M216.34,37.06l14-6.19,20,45.11-14,6.19Z"/><path class="cls-1" d="M285.46,54.91,269,60.13l.16,8.49-14.84,4.7,2.81-52.64,15.85-5,32.55,41.45-15.22,4.82Zm-6.23-9.21L268.69,30.43,268.9,49Z"/><path class="cls-1" d="M301.41,7.85l14.08-2.07,22.36,24.3-4-27L348.09,1l7.18,48.81-14.21,2.1L318.83,27.78l3.95,26.8-14.19,2.09Z"/><path class="cls-1" d="M389.3,0l28.52,1.08Q425,1.35,428.64,5a11.47,11.47,0,0,1,3.48,8.89,11.06,11.06,0,0,1-3,7.4,12.24,12.24,0,0,1-5.44,3.09q5.26,1.49,7.65,4.69A12.05,12.05,0,0,1,433.54,37a13.55,13.55,0,0,1-2,6.83,13.2,13.2,0,0,1-5.06,4.66,16.24,16.24,0,0,1-5.85,1.39,67.72,67.72,0,0,1-6.85.42l-26.3-1Zm14.64,19.92,6.63.25q3.56.13,5-1a4.42,4.42,0,0,0,1.53-3.5,4.19,4.19,0,0,0-1.26-3.41c-.91-.84-2.51-1.31-4.82-1.4l-6.73-.25Zm-.73,19.37,7.77.29q3.93.15,5.6-1.18a4.72,4.72,0,0,0,1.76-3.69,4.38,4.38,0,0,0-1.47-3.58c-1-.92-2.88-1.44-5.55-1.54l-7.73-.29Z"/><path class="cls-1" d="M469.13,50.29l-16.94-3.54-4,7.49-15.23-3.18L461.16,6.55l16.28,3.39L485.52,62l-15.63-3.26Zm-.91-11.09-1.71-18.47L457.61,37Z"/><path class="cls-1" d="M505.53,17l21.28,7.73a27.15,27.15,0,0,1,9.55,5.41A17.51,17.51,0,0,1,541,37.36a21.64,21.64,0,0,1,1,8.77,36.86,36.86,0,0,1-2.12,9.4Q537.14,63,534,66.44a20.14,20.14,0,0,1-7.19,5.16A16.34,16.34,0,0,1,519,73a35.29,35.29,0,0,1-9-1.84l-21.3-7.73ZM516,32.71l-9.2,25.34,3.51,1.27q4.5,1.63,6.75,1.33a7.24,7.24,0,0,0,4.24-2.4q2-2.1,4-7.66,2.67-7.38,1.26-11c-.94-2.39-3.27-4.27-7-5.61Z"/><path class="cls-1" d="M559.43,38.15l13.75,6.65L551.69,89.21l-13.75-6.65Z"/><path class="cls-1" d="M586,51.18,599,59,579.9,90.92l20.41,12.23-6.25,10.42L560.58,93.49Z"/><path class="cls-1" d="M628.47,77.61l12.14,9.22-22.49,29.61,19,14.39-7.35,9.68L598.64,116.9Z"/><path class="cls-1" d="M661.64,159.21l-12.53-11.93-7.36,4.23-11.27-10.73,47.45-22.94,12,11.47-20.6,48.51-11.56-11Zm5.07-9.9,8.29-16.6-16.14,9.12Z"/><path class="cls-1" d="M266.46,244.4a4.78,4.78,0,0,1,4.75,3.44l93.53,252.32a4.92,4.92,0,0,1,.27,1.59v1.85a5,5,0,0,1-5,5H295a4.51,4.51,0,0,1-4.75-3.44l-14-37.78H191.68l-14.26,37.78a4.52,4.52,0,0,1-4.76,3.44H107.93a5.17,5.17,0,0,1-3.83-1.46,4.83,4.83,0,0,1-1.45-3.56v-1.85a7.51,7.51,0,0,1,.26-1.85l93.53-252.06a4.78,4.78,0,0,1,4.76-3.44Zm-50.73,158h36.46l-18.5-48.87Z"/><path class="cls-2" d="M343.33,383.83s34.54,6.5,43.85,3.05,16.3-45-14.36-52.15-39.19-4.85-55.49,14.56C317.33,349.29,311.12,373.36,343.33,383.83Z"/><path class="cls-2" d="M316.85,309.7v34.15s11.34-21.34,44.72-17.07C361.57,326.78,344.69,295.73,316.85,309.7Z"/><path class="cls-2" d="M313.83,306.09v42s-46.56,2-45.79-25S313.83,306.09,313.83,306.09Z"/><path class="cls-2" d="M242.82,333s21.71,3.79,25.21-2c0,0,5.44,21.78,42.7,20.23C310.73,351.23,260.67,393.91,242.82,333Z"/><path class="cls-2" d="M303.74,249.94c1.34-.43-51.61,44.3-54.33,76.28,0,0-17.85,2.89-25.22-14.19S239.32,270.51,303.74,249.94Z"/><path class="cls-2" d="M255.15,325s15.22-45.54,43.94-62.22c0,0-15.14,17.85-15.14,21.73s5.82,11-12,21.61c0,0-7.14,5.82-8.61,18.88Z"/><path class="cls-2" d="M307.62,249.94c1.56.39,15.92,0,15.92,0s20.86,15.52,15.67,29.88l-22.36,8.35-9.23-11.07s2.33-9.94-3.85-11.25l4.63-8.15-7.37.78Z"/><path class="cls-2" d="M310.73,354.33s7.31,36.48,25.39,43.85c0,0,.13,20.14,3.09,26.37,0,0-37.41-18.89-38.18-61.05l2.74-4.06s4.83,29,16.76,36.8c0,0-12.57-22.64-13.29-35.44Z"/><path class="cls-2" d="M391.45,392l3.67,5-1.84,11.7-4.16,12.75H363.9S354.58,397.79,391.45,392Z"/><path class="cls-2" d="M368.94,425.51l19.79-1,6.26,7.39-1.6,7L388,450s-25.78,2.55-25.11-7.93S368.94,425.51,368.94,425.51Z"/><path class="cls-2" d="M365.45,467.65c-.81-1.33-2.33-15.91,23.28-15.14L395,461.2v25.07S376.7,486.27,365.45,467.65Z"/><path class="cls-2" d="M336.73,387.89s21.34,6.41,36.87,4.08c0,0-22.33,9.6-12,33.54,0,0-9.89,10.8,1.26,24.72l-3.2,13.15s-14.36-6.21-12-32.21A21.82,21.82,0,0,1,340,416.42l3.68.39s2.71,10.82,11.44,7.74c0,0-8-4.64-8.34-11.62,0,0-8.52.78-6.78-10.09l4.06,1.55s-1.46,7,11.88,7.76c0,0-8.77-2.71-7.61-9.31,0,0-8.6-1-9.16-10.87l6.45,2.72s-1.56,5.43,2.84,6.21l2.2.65s-.65,2.71,6.47,2.19c0,0-8.15-2.84-7.25-8.66Z"/><path class="cls-2" d="M369.46,331s6.22-5.13,9.45-11.6c0,0,10.47,10.09,11.5,15.27v-8.26l10.09.63v6.59s4.4-9.83,12.42-14.23c0,0,5.43,9.49,8.8,11.6,0,0-14.75,1.6-26.13,16.09A34.39,34.39,0,0,0,369.46,331Z"/><path class="cls-2" d="M450.26,383.83s-34.54,6.5-43.86,3.05-16.29-45,14.36-52.15,39.2-4.85,55.5,14.56C476.26,349.29,482.47,373.36,450.26,383.83Z"/><path class="cls-2" d="M476.74,309.7v34.15S465.39,322.51,432,326.78C432,326.78,448.89,295.73,476.74,309.7Z"/><path class="cls-2" d="M479.75,306.09v42s46.57,2,45.79-25S479.75,306.09,479.75,306.09Z"/><path class="cls-2" d="M550.77,333s-21.72,3.79-25.22-2c0,0-5.44,21.78-42.7,20.23C482.85,351.23,532.92,393.91,550.77,333Z"/><path class="cls-2" d="M489.84,249.94c-1.33-.43,51.61,44.3,54.33,76.28,0,0,17.85,2.89,25.23-14.19S554.26,270.51,489.84,249.94Z"/><path class="cls-2" d="M538.44,325s-15.23-45.54-43.94-62.22c0,0,15.13,17.85,15.13,21.73s-5.82,11,12,21.61c0,0,7.14,5.82,8.62,18.88Z"/><path class="cls-2" d="M486,249.94c-1.55.39-15.91,0-15.91,0s-20.86,15.52-15.67,29.88l22.36,8.35L486,277.1s-2.33-9.94,3.86-11.25l-4.64-8.15,7.38.78Z"/><path class="cls-2" d="M482.85,354.33s-7.31,36.48-25.38,43.85c0,0-.14,20.14-3.09,26.37,0,0,37.4-18.89,38.18-61.05l-2.74-4.06s-4.84,29-16.77,36.8c0,0,12.58-22.64,13.3-35.44Z"/><path class="cls-2" d="M402.14,392l-3.68,5,1.84,11.7,4.16,12.75h25.23S439,397.79,402.14,392Z"/><path class="cls-2" d="M424.64,425.51l-19.79-1-6.25,7.39,1.6,7,5.43,11s25.77,2.55,25.11-7.93S424.64,425.51,424.64,425.51Z"/><path class="cls-2" d="M428.14,467.65c.8-1.33,2.32-15.91-23.29-15.14l-6.25,8.69v25.07S416.88,486.27,428.14,467.65Z"/><path class="cls-2" d="M456.85,387.89S435.51,394.3,420,392c0,0,22.32,9.6,12,33.54,0,0,9.88,10.8-1.27,24.72L434,463.38s14.36-6.21,12-32.21a21.82,21.82,0,0,0,7.56-14.75l-3.68.39s-2.72,10.82-11.45,7.74c0,0,8-4.64,8.34-11.62,0,0,8.53.78,6.79-10.09l-4.07,1.55s1.47,7-11.88,7.76c0,0,8.78-2.71,7.61-9.31,0,0,8.6-1,9.17-10.87l-6.45,2.72s1.55,5.43-2.85,6.21l-2.2.65s.65,2.71-6.46,2.19c0,0,8.14-2.84,7.24-8.66Z"/><path class="cls-2" d="M424.44,266.36s4.84-37-28.33-37.93h-.52c-33.17.91-28.33,37.93-28.33,37.93s-5.42-2.44-4.72,3.5.7,19.06,4.72,18.19c0,0,10.32,35.91,28.85,34.16,18.53,1.75,28.33-34.16,28.33-34.16,4,.87,4-12.24,4.72-18.19S424.44,266.36,424.44,266.36Z"/><path class="cls-3" d="M751.07,225.41s73.46,146-17.89,363.33c0,0-6.27,4.11-4.08-4.78s80.23-186.19,17.08-355.87C746.18,228.09,743.93,214.92,751.07,225.41Z"/><path class="cls-3" d="M29.93,225.91s-73.46,146,17.89,363.33c0,0,6.27,4.11,4.08-4.78S-28.33,398.27,34.82,228.59C34.82,228.59,37.07,215.42,29.93,225.91Z"/><text class="cls-4" transform="matrix(0.88, 0.6, -0.57, 0.82, 110.22, 649.97)">F</text><text class="cls-4" transform="matrix(0.91, 0.56, -0.52, 0.85, 138.93, 669.31)">I</text><text class="cls-4" transform="translate(153.14 678.27) rotate(29.01) scale(1.07 1)">S</text><text class="cls-4" transform="translate(184.25 695.24) rotate(26.42) scale(1.07 1)">I</text><text class="cls-4" transform="translate(199.38 703.23) rotate(23.05) scale(1.07 1)">C</text><text class="cls-4" transform="translate(241.89 721.56) rotate(17.73) scale(1.07 1)">O</text><text class="cls-4" transform="translate(295.72 738.48) rotate(11.37) scale(1.07 1)">C</text><text class="cls-4" transform="translate(345.27 748.21) rotate(4.97) scale(1.07 1)">U</text><text class="cls-4" transform="matrix(1.07, -0.01, 0.01, 1, 391.77, 751.81)">L</text><text class="cls-4" transform="matrix(1.07, -0.09, 0.08, 1, 414.82, 751.94)">T</text><text class="cls-4" transform="matrix(1.05, -0.21, 0.2, 0.98, 456.48, 748.52)">U</text><text class="cls-4" transform="translate(502.6 738.92) rotate(-18.27) scale(1.07 1)">R</text><text class="cls-4" transform="translate(543.05 724.95) rotate(-22.74) scale(1.07 1)">I</text><text class="cls-4" transform="matrix(0.96, -0.48, 0.45, 0.89, 559.03, 718.51)">S</text><text class="cls-4" transform="matrix(0.9, -0.58, 0.54, 0.84, 592.02, 702.32)">M</text><text class="cls-4" transform="translate(637.13 673.29) rotate(-39.21) scale(1.07 1)">O</text></svg>