<svg id="Capa_1" data-name="Capa 1" xmlns="http://www.w3.org/2000/svg" viewBox="0 0 1533.96 782.06"><defs><style>.cls-1{fill:#e20613;}.cls-2{fill:#fff;}.cls-3{fill:#c6c6c5;}</style></defs><path class="cls-1" d="M455.74,233H571.25a68.13,68.13,0,0,1,26.44,5.14,66,66,0,0,1,21.81,14.76q9.5,9.61,15,24.9A100.26,100.26,0,0,1,640,312.09a104.5,104.5,0,0,1-2,21.82c-1.38,6.34-2.74,10.61-4.11,12.84l-2.06,3.08a34.18,34.18,0,0,0,2.19,2.69,67.61,67.61,0,0,1,5.13,7.57,115.51,115.51,0,0,1,6.42,12.07,83,83,0,0,1,5.13,16,88.83,88.83,0,0,1,2.18,19.64,108.67,108.67,0,0,1-5.51,35.68q-5.54,15.92-14.89,25.8a65.86,65.86,0,0,1-21.31,15.14,62.58,62.58,0,0,1-25.54,5.26H455.74ZM526,298.47v34.47a2.39,2.39,0,0,0,2.7,2.7H553a20.23,20.23,0,0,0,19.93-20.07,18.89,18.89,0,0,0-5.92-14,19.39,19.39,0,0,0-14-5.79H528.72A2.38,2.38,0,0,0,526,298.47Zm39.05,141.11A19.77,19.77,0,0,0,585,419.79a19.54,19.54,0,0,0-5.79-14.14,19.06,19.06,0,0,0-14.14-5.92H528.72a2.38,2.38,0,0,0-2.7,2.69v34.47a2.38,2.38,0,0,0,2.7,2.69Z"/><path class="cls-2" d="M71.91,167.73,59.25,181.1l4.53,7.81-11.38,12L27.84,150.53,40,137.68l51.68,21.76L80,171.77Zm-10.56-5.36L43.66,153.6l9.77,17.14Z"/><path class="cls-2" d="M61.4,116.53,80,101.21a29,29,0,0,1,10.11-5.83,18.87,18.87,0,0,1,9.13-.33,23,23,0,0,1,8.55,3.86,38.5,38.5,0,0,1,7.46,7q5.35,6.5,6.82,11.29a21.6,21.6,0,0,1,.84,9.37,17.31,17.31,0,0,1-3,7.87,37.38,37.38,0,0,1-6.55,7.25L94.78,157Zm20.08-1.14,18.23,22.14,3.07-2.53q3.93-3.24,4.87-5.47a7.72,7.72,0,0,0,.09-5.18c-.57-2-2.18-4.56-4.86-7.81q-5.3-6.44-9.36-7.08t-8.92,3.36Z"/><path class="cls-2" d="M137.93,122.23,110.07,77.75,133,63.4q6.38-4,10.43-5a12.23,12.23,0,0,1,8,.65A14.46,14.46,0,0,1,158,65a14,14,0,0,1,.81,14.45A19.45,19.45,0,0,1,155,84.19a16.09,16.09,0,0,1,4.61-.6,15.59,15.59,0,0,1,3.66,1A20,20,0,0,1,167,86.11l14.73,8.72-15.53,9.72-15.86-9a12.22,12.22,0,0,0-4.64-1.87,6.74,6.74,0,0,0-4,1.08l-1.22.76,11.31,18Zm-2.76-35.11L141,83.49a24.05,24.05,0,0,0,3.27-2.88,4.36,4.36,0,0,0,1.35-2.8,5.31,5.31,0,0,0-4.19-5.57q-2.08-.3-5.85,2.06l-6,3.78Z"/><path class="cls-2" d="M163.15,46.36l14.6-7.14,23.06,47.15-14.6,7.14Z"/><path class="cls-2" d="M237.36,62.56,220,68.77l.52,9L205,83.38l.86-56.07,16.66-6L258.74,64.1l-16,5.73Zm-7-9.55L218.54,37.2l1,19.7Z"/><path class="cls-2" d="M252.41,11.89l14.9-2.77,24.74,24.93L286.73,5.5l15-2.8,9.6,51.61-15,2.79-24.6-24.73L277,60.7l-15,2.79Z"/><path class="cls-2" d="M345.54,0H375.9q7.59,0,11.66,3.76a12.16,12.16,0,0,1,4.06,9.31,11.71,11.71,0,0,1-2.9,8,12.92,12.92,0,0,1-5.65,3.51q5.65,1.36,8.32,4.67a12.86,12.86,0,0,1,2.67,8.33,14.29,14.29,0,0,1-1.9,7.34A13.87,13.87,0,0,1,387,50.05a17.1,17.1,0,0,1-6.16,1.72,70.47,70.47,0,0,1-7.27.72h-28Zm16.37,20.59h7q3.8,0,5.28-1.31a4.77,4.77,0,0,0,1.49-3.78,4.5,4.5,0,0,0-1.49-3.58c-1-.86-2.72-1.29-5.17-1.29H361.9Zm0,20.62h8.27q4.19,0,5.91-1.49a5,5,0,0,0,1.71-4A4.6,4.6,0,0,0,376.1,32q-1.69-1.41-6-1.41h-8.23Z"/><path class="cls-2" d="M432.44,50.25l-18.16-3.08-4,8.12L394,52.53,422.2,4.07,439.64,7l10.68,55.05-16.74-2.84ZM431,38.5l-2.56-19.57-8.8,17.64Z"/><path class="cls-2" d="M469.78,13.4l23,7.36a28.87,28.87,0,0,1,10.37,5.36,18.67,18.67,0,0,1,5.2,7.5,22.81,22.81,0,0,1,1.39,9.28A39.27,39.27,0,0,1,507.81,53q-2.56,8-5.81,11.84a21.54,21.54,0,0,1-7.44,5.77,17.25,17.25,0,0,1-8.23,1.74,37.8,37.8,0,0,1-9.64-1.59l-22.94-7.36Zm11.81,16.27L472.83,57l3.79,1.22q4.83,1.54,7.23,1.13a7.66,7.66,0,0,0,4.41-2.72q2-2.31,3.94-8.3,2.55-8,.9-11.71t-7.65-5.69Z"/><path class="cls-2" d="M527.94,33.71l14.89,6.52L521.77,88.31l-14.89-6.52Z"/><path class="cls-2" d="M556.67,46.5l14.21,7.81L551.83,89,574,101.17l-6.22,11.33-36.4-20Z"/><path class="cls-2" d="M602.93,72.88l13.27,9.31-22.71,32.4,20.72,14.53-7.42,10.58-34-23.84Z"/><path class="cls-2" d="M641.47,158.3l-13.8-12.18-7.65,4.8L607.6,140l49.53-26.3,13.26,11.71-19.95,52.41-12.73-11.24Zm5-10.73,8.15-18-16.79,10.35Z"/><path class="cls-2" d="M246.34,240.24a4.62,4.62,0,0,1,4.6,3.32l90.51,244.16a4.81,4.81,0,0,1,.25,1.53V491a4.8,4.8,0,0,1-4.85,4.86H274a4.37,4.37,0,0,1-4.6-3.33L255.8,456H174l-13.8,36.56a4.39,4.39,0,0,1-4.61,3.33H93a5,5,0,0,1-3.71-1.41A4.69,4.69,0,0,1,87.83,491v-1.79a7.56,7.56,0,0,1,.26-1.79l90.5-243.9a4.63,4.63,0,0,1,4.6-3.32ZM197.26,393.12h35.28l-17.9-47.29Z"/><path class="cls-3" d="M320.73,375.15s33.42,6.28,42.43,3,15.77-43.52-13.9-50.46-37.92-4.69-53.69,14.08C295.57,341.72,289.56,365,320.73,375.15Z"/><path class="cls-3" d="M295.1,303.42v33s11-20.65,43.27-16.52C338.37,319.94,322.05,289.9,295.1,303.42Z"/><path class="cls-3" d="M292.19,299.92V340.6s-45.06,2-44.31-24.18S292.19,299.92,292.19,299.92Z"/><path class="cls-3" d="M223.47,326s21,3.67,24.4-1.92c0,0,5.26,21.07,41.31,19.57C289.18,343.6,240.74,384.91,223.47,326Z"/><path class="cls-3" d="M282.42,245.59c1.29-.41-49.94,42.86-52.57,73.82,0,0-17.27,2.79-24.41-13.74S220.09,265.49,282.42,245.59Z"/><path class="cls-3" d="M235.4,318.19s14.73-44.06,42.52-60.21c0,0-14.65,17.28-14.65,21s5.63,10.66-11.64,20.91c0,0-6.91,5.64-8.33,18.27Z"/><path class="cls-3" d="M286.18,245.59c1.5.38,15.39,0,15.39,0s20.19,15,15.17,28.92l-21.64,8.08-8.92-10.71s2.25-9.63-3.73-10.89l4.48-7.89-7.14.75Z"/><path class="cls-3" d="M289.18,346.6s7.08,35.3,24.57,42.44c0,0,.13,19.48,3,25.51,0,0-36.19-18.28-36.95-59.07l2.66-3.93s4.67,28.1,16.22,35.61c0,0-12.17-21.91-12.87-34.29Z"/><path class="cls-3" d="M367.29,383l3.55,4.88-1.77,11.33-4,12.33H340.63S331.61,388.66,367.29,383Z"/><path class="cls-3" d="M345.51,415.48l19.15-.93,6,7.16-1.54,6.76-5.26,10.67s-24.94,2.47-24.3-7.67S345.51,415.48,345.51,415.48Z"/><path class="cls-3" d="M342.13,456.25c-.78-1.28-2.25-15.39,22.53-14.64l6,8.4v24.27S353,474.28,342.13,456.25Z"/><path class="cls-3" d="M314.34,379.08S335,385.28,350,383c0,0-21.6,9.28-11.64,32.45,0,0-9.56,10.45,1.23,23.92l-3.1,12.72s-13.9-6-11.64-31.17a21.09,21.09,0,0,1-7.32-14.26l3.56.37s2.63,10.47,11.08,7.49c0,0-7.7-4.49-8.08-11.24,0,0-8.24.75-6.56-9.77l3.94,1.5s-1.42,6.76,11.49,7.51c0,0-8.49-2.62-7.36-9,0,0-8.32-1-8.87-10.51l6.24,2.63s-1.5,5.25,2.75,6l2.13.62s-.63,2.63,6.26,2.13c0,0-7.89-2.75-7-8.39Z"/><path class="cls-3" d="M346,324s6-5,9.15-11.22c0,0,10.13,9.76,11.13,14.77v-8l9.76.61v6.39s4.26-9.52,12-13.77c0,0,5.25,9.17,8.51,11.22,0,0-14.27,1.55-25.29,15.56A33.27,33.27,0,0,0,346,324Z"/><path class="cls-3" d="M424.19,375.15s-33.42,6.28-42.43,3S366,334.58,395.65,327.64s37.93-4.69,53.7,14.08C449.35,341.72,455.36,365,424.19,375.15Z"/><path class="cls-3" d="M449.82,303.42v33s-11-20.65-43.28-16.52C406.54,319.94,422.87,289.9,449.82,303.42Z"/><path class="cls-3" d="M452.73,299.92V340.6s45.06,2,44.31-24.18S452.73,299.92,452.73,299.92Z"/><path class="cls-3" d="M521.45,326s-21,3.67-24.4-1.92c0,0-5.26,21.07-41.31,19.57C455.74,343.6,504.18,384.91,521.45,326Z"/><path class="cls-3" d="M462.5,245.59c-1.29-.41,49.94,42.86,52.57,73.82,0,0,17.27,2.79,24.41-13.74S524.83,265.49,462.5,245.59Z"/><path class="cls-3" d="M509.52,318.19S494.79,274.13,467,258c0,0,14.65,17.28,14.65,21s-5.64,10.66,11.64,20.91c0,0,6.91,5.64,8.33,18.27Z"/><path class="cls-3" d="M458.74,245.59c-1.5.38-15.4,0-15.4,0s-20.18,15-15.16,28.92l21.64,8.08,8.92-10.71s-2.25-9.63,3.73-10.89L458,253.1l7.13.75Z"/><path class="cls-3" d="M455.74,346.6s-7.08,35.3-24.57,42.44c0,0-.13,19.48-3,25.51,0,0,36.19-18.28,36.94-59.07l-2.65-3.93s-4.68,28.1-16.22,35.61c0,0,12.17-21.91,12.87-34.29Z"/><path class="cls-3" d="M377.63,383l-3.55,4.88,1.77,11.33,4,12.33h24.41S413.3,388.66,377.63,383Z"/><path class="cls-3" d="M399.41,415.48l-19.15-.93-6.05,7.16,1.54,6.76L381,439.14s24.94,2.47,24.3-7.67S399.41,415.48,399.41,415.48Z"/><path class="cls-3" d="M402.79,456.25c.78-1.28,2.25-15.39-22.53-14.64l-6.05,8.4v24.27S391.9,474.28,402.79,456.25Z"/><path class="cls-3" d="M430.58,379.08s-20.66,6.2-35.68,3.95c0,0,21.61,9.28,11.64,32.45,0,0,9.57,10.45-1.22,23.92l3.1,12.72s13.9-6,11.64-31.17a21.09,21.09,0,0,0,7.32-14.26l-3.56.37s-2.63,10.47-11.08,7.49c0,0,7.7-4.49,8.07-11.24,0,0,8.25.75,6.57-9.77l-3.94,1.5s1.42,6.76-11.49,7.51c0,0,8.49-2.62,7.36-9,0,0,8.32-1,8.87-10.51l-6.24,2.63s1.5,5.25-2.75,6l-2.13.62s.62,2.63-6.26,2.13c0,0,7.89-2.75,7-8.39Z"/><path class="cls-3" d="M399.21,261.48s4.69-35.82-27.41-36.7v0h-.51v0c-32.09.88-27.41,36.7-27.41,36.7s-5.25-2.36-4.57,3.39.68,18.44,4.57,17.6c0,0,10,34.75,27.92,33.06,17.93,1.69,27.41-33.06,27.41-33.06,3.9.84,3.9-11.85,4.57-17.6S399.21,261.48,399.21,261.48Z"/><path class="cls-2" d="M80.87,548.53a1.27,1.27,0,0,1,.06,1,1.37,1.37,0,0,1-.74.78l-12.47,6a1.39,1.39,0,0,1-1,.07,1.23,1.23,0,0,1-.78-.66L55.64,534.29l-8.89,4.25,8.91,18.6a1.27,1.27,0,0,1,.06,1,1.26,1.26,0,0,1-.68.75l-12.52,6a1.27,1.27,0,0,1-1,.06,1.29,1.29,0,0,1-.75-.68l-8.91-18.6L9.24,556.51a1.28,1.28,0,0,1-1.08.06,1.41,1.41,0,0,1-.77-.71L.16,540.77a1.35,1.35,0,0,1-.09-1.07,1.37,1.37,0,0,1,.74-.78l60.12-28.8A1.35,1.35,0,0,1,62,510a1.37,1.37,0,0,1,.78.74Z"/><path class="cls-2" d="M31.92,600.8,23.2,586.52a1.37,1.37,0,0,1-.2-1.06,1.34,1.34,0,0,1,.66-.85l56.89-34.73a1.37,1.37,0,0,1,1.06-.2,1.41,1.41,0,0,1,.85.66l8.72,14.29a1.39,1.39,0,0,1,.18,1,1.29,1.29,0,0,1-.64.88L33.83,601.27a1.36,1.36,0,0,1-1.08.17A1.41,1.41,0,0,1,31.92,600.8Z"/><path class="cls-2" d="M115.11,601.35l-11.57,7.17a1.38,1.38,0,0,1-1.08.13,1.16,1.16,0,0,1-.82-.68A63.25,63.25,0,0,0,95.2,596.9,10.31,10.31,0,0,0,92.26,594a5.21,5.21,0,0,0-2.83-.9,8,8,0,0,0-2,.3,4.07,4.07,0,0,0-1.27.62,4.74,4.74,0,0,0-1.05,1.15,9.08,9.08,0,0,0-1,2.14,8.62,8.62,0,0,0-.23,3.71,17.8,17.8,0,0,0,1.44,5A21.8,21.8,0,0,1,87,612.52a25.79,25.79,0,0,1-.22,7.21,20.31,20.31,0,0,1-2.89,7.36,24.55,24.55,0,0,1-6,6.52q-8.06,6.17-15.74,4.16T46,624.68a120.7,120.7,0,0,1-8.27-12.2,1.31,1.31,0,0,1-.12-1,1.47,1.47,0,0,1,.56-.86l11.56-7.17a1.29,1.29,0,0,1,1.11-.15,1.34,1.34,0,0,1,.84.76,62,62,0,0,0,6.2,10.64,10.62,10.62,0,0,0,3,2.92,5,5,0,0,0,2.78.89,7.63,7.63,0,0,0,2-.32,4.5,4.5,0,0,0,1.3-.64A4.93,4.93,0,0,0,68,616.44a10.12,10.12,0,0,0,1-2.12,8.26,8.26,0,0,0,.25-3.68,17.8,17.8,0,0,0-1.44-5,21.24,21.24,0,0,1-1.75-6.52,26.53,26.53,0,0,1,.21-7.15,20.34,20.34,0,0,1,2.87-7.4,24.16,24.16,0,0,1,6-6.57q7.73-5.89,16-3.39T107.08,587a142.75,142.75,0,0,1,8.47,12.58,1.3,1.3,0,0,1,.12,1A1.47,1.47,0,0,1,115.11,601.35Z"/><path class="cls-2" d="M80.93,662.49,69.45,650.31a1.31,1.31,0,0,1,.06-2L118,602.62a1.31,1.31,0,0,1,2,.06l11.48,12.17a1.45,1.45,0,0,1,.39,1,1.35,1.35,0,0,1-.45,1L82.9,662.54a1.3,1.3,0,0,1-1,.39A1.41,1.41,0,0,1,80.93,662.49Z"/><path class="cls-2" d="M141.62,683.89l3.7,16.7a1.36,1.36,0,0,1-.2,1,1.22,1.22,0,0,1-.82.58,36.87,36.87,0,0,1-16-.2,36.66,36.66,0,0,1-23.78-18.35,35.55,35.55,0,0,1-2.89-27.22,35.85,35.85,0,0,1,17.76-21.85,36.49,36.49,0,0,1,13.33-4.07,37,37,0,0,1,13.9,1.33,36.41,36.41,0,0,1,22.82,19.49,36.45,36.45,0,0,1,3.48,15.53,1.47,1.47,0,0,1-.44,1,1.37,1.37,0,0,1-1,.39l-17-.26a1.3,1.3,0,0,1-.93-.35,1.25,1.25,0,0,1-.39-.9,19.75,19.75,0,0,0-1.75-7.15,15.48,15.48,0,0,0-4.37-5.79,16.59,16.59,0,1,0-20.94,25.75,15.66,15.66,0,0,0,6.6,3.12,19,19,0,0,0,7.42.22,1.2,1.2,0,0,1,1,.2A1.3,1.3,0,0,1,141.62,683.89Z"/><path class="cls-2" d="M193.23,665.79a36.73,36.73,0,0,1,25.22,13.36,37.09,37.09,0,0,1,6.74,12.34,36.46,36.46,0,0,1,1.52,13.88,35.49,35.49,0,0,1-13.18,24.88,36.21,36.21,0,0,1-12.37,6.57,36.8,36.8,0,0,1-47.45-38.27,35.49,35.49,0,0,1,13.19-24.88,36.6,36.6,0,0,1,12.34-6.54A37.15,37.15,0,0,1,193.23,665.79Zm-19,41a17,17,0,0,0,21.05,11.15,16.43,16.43,0,0,0,11-20.74A17,17,0,0,0,185.19,686a16.43,16.43,0,0,0-11,20.74Z"/><path class="cls-2" d="M273.66,744.52l10,13.88a1.31,1.31,0,0,1,.22,1,1.2,1.2,0,0,1-.53.86,36.86,36.86,0,0,1-14.77,6.13,36.67,36.67,0,0,1-29.09-7.46,35.53,35.53,0,0,1-13.4-23.87A35.8,35.8,0,0,1,233.76,708a36.19,36.19,0,0,1,10.64-9,37,37,0,0,1,13.3-4.28,36.46,36.46,0,0,1,28.66,8.89,36.5,36.5,0,0,1,9.33,12.9,1.44,1.44,0,0,1,0,1.08,1.34,1.34,0,0,1-.71.73l-15.78,6.5a1.28,1.28,0,0,1-1,0,1.18,1.18,0,0,1-.71-.67,19.85,19.85,0,0,0-4.44-5.88,15.55,15.55,0,0,0-6.3-3.59,16.6,16.6,0,1,0-9.06,31.93,15.8,15.8,0,0,0,7.29.26,19.1,19.1,0,0,0,6.91-2.73,1.2,1.2,0,0,1,.95-.2A1.31,1.31,0,0,1,273.66,744.52Z"/><path class="cls-2" d="M355.63,709.11a1.32,1.32,0,0,1,.91.46,1.3,1.3,0,0,1,.3,1l-3.51,41.58a35.14,35.14,0,0,1-1.57,7.85,27.48,27.48,0,0,1-3.76,7.34A23.75,23.75,0,0,1,333,777.19a38.5,38.5,0,0,1-11.93.7,38,38,0,0,1-11.62-2.69,25.48,25.48,0,0,1-8.2-5.22,25.2,25.2,0,0,1-5-7,27.4,27.4,0,0,1-2.47-7.88,34.86,34.86,0,0,1-.23-8L297,705.49a1.32,1.32,0,0,1,.46-.91,1.3,1.3,0,0,1,1-.3l16.74,1.42a1.39,1.39,0,0,1,.94.46,1.25,1.25,0,0,1,.33,1l-3.54,41.92a15.43,15.43,0,0,0,.18,4.1,12.14,12.14,0,0,0,1.39,3.77,8.07,8.07,0,0,0,3.09,3,11.64,11.64,0,0,0,4.9,1.43,11.78,11.78,0,0,0,5.06-.58,7.79,7.79,0,0,0,3.52-2.46,13.41,13.41,0,0,0,2-3.49,14.69,14.69,0,0,0,.9-4l3.54-41.93a1.24,1.24,0,0,1,.46-.9,1.26,1.26,0,0,1,1-.3Z"/><path class="cls-2" d="M401.77,773.44a1.38,1.38,0,0,1-.3,1,1.31,1.31,0,0,1-.91.45l-38.64,2.86a1.34,1.34,0,0,1-1-.3,1.37,1.37,0,0,1-.45-1L355.51,710a1.34,1.34,0,0,1,.31-1,1.36,1.36,0,0,1,1-.46l16.69-1.23a1.36,1.36,0,0,1,1,.31,1.3,1.3,0,0,1,.49,1l3.83,51.72,20.5-1.52a1.4,1.4,0,0,1,1,.31,1.37,1.37,0,0,1,.45,1Z"/><path class="cls-2" d="M434.72,699.75l2.47,13.59a1.28,1.28,0,0,1-.24,1,1.43,1.43,0,0,1-.89.55l-15,2.71,9.19,50.69a1.36,1.36,0,0,1-.23,1.07,1.43,1.43,0,0,1-.89.55l-16.54,3a1.33,1.33,0,0,1-1-.21,1.39,1.39,0,0,1-.55-.93l-9.19-50.69-15,2.72a1.4,1.4,0,0,1-1.06-.2,1.23,1.23,0,0,1-.54-.85l-2.47-13.6a1.37,1.37,0,0,1,.2-1.06,1.34,1.34,0,0,1,.92-.55l49.12-8.91a1.36,1.36,0,0,1,1,.2A1.29,1.29,0,0,1,434.72,699.75Z"/><path class="cls-2" d="M487.88,679.13a1.23,1.23,0,0,1,1,0,1.27,1.27,0,0,1,.68.74l14.36,39.18a34.9,34.9,0,0,1,1.89,7.78,27.43,27.43,0,0,1-.3,8.24,25.65,25.65,0,0,1-2.95,8.11,25.33,25.33,0,0,1-6.53,7.2,42,42,0,0,1-22.2,8.14,25.69,25.69,0,0,1-9.63-1.28,25,25,0,0,1-7.52-4.27,27.29,27.29,0,0,1-5.56-6.09,34.76,34.76,0,0,1-3.59-7.16l-14.36-39.18a1.27,1.27,0,0,1,0-1,1.29,1.29,0,0,1,.75-.68l15.77-5.78a1.41,1.41,0,0,1,1.05,0,1.26,1.26,0,0,1,.71.74L466,733.37a15.1,15.1,0,0,0,1.89,3.64,12.2,12.2,0,0,0,2.85,2.84,8,8,0,0,0,4.07,1.42,12.87,12.87,0,0,0,9.39-3.44,7.73,7.73,0,0,0,2.15-3.71,13.34,13.34,0,0,0,.34-4,14.59,14.59,0,0,0-.87-4L471.32,686.6a1.27,1.27,0,0,1,0-1,1.32,1.32,0,0,1,.75-.68Z"/><path class="cls-2" d="M550.64,695.4q11.67,3.89,19.2,16a1.37,1.37,0,0,1,.16,1,1.26,1.26,0,0,1-.66.86l-15.54,9.06a1.22,1.22,0,0,1-1,.14,1.26,1.26,0,0,1-.8-.61q-4.53-7.1-10.18-9A15.09,15.09,0,0,0,530,714l9,15.35a1.36,1.36,0,0,1,.13,1,1.32,1.32,0,0,1-.63.85L524,739.71a1.31,1.31,0,0,1-1.08.15,1.44,1.44,0,0,1-.82-.65L488,680.72a1.36,1.36,0,0,1-.18-1.06,1.39,1.39,0,0,1,.68-.84l28.43-16.57a20.89,20.89,0,0,1,7.73-2.74,18.81,18.81,0,0,1,7.93.65,20.66,20.66,0,0,1,7.77,4.51,34.65,34.65,0,0,1,6.91,8.67Q554.4,685.58,550.64,695.4Zm-37.39-10.11,7.45,12.78a.55.55,0,0,0,.85.23l6.9-4a6.75,6.75,0,0,0,3.31-4.46,9.34,9.34,0,0,0-5.88-10.08,6.7,6.7,0,0,0-5.51.68l-6.9,4A.55.55,0,0,0,513.25,685.29Z"/><path class="cls-2" d="M590.2,695.85l-13.36,10.07a1.31,1.31,0,0,1-1.94-.27l-40.12-53.24a1.35,1.35,0,0,1-.3-1,1.33,1.33,0,0,1,.58-.91l13.36-10.07a1.4,1.4,0,0,1,1-.28,1.3,1.3,0,0,1,.94.55l40.11,53.24a1.28,1.28,0,0,1,.27,1.05A1.38,1.38,0,0,1,590.2,695.85Z"/><path class="cls-2" d="M582.59,613.05l8.26,10.81a1.37,1.37,0,0,1,.23,1.07,1.16,1.16,0,0,1-.59.89,62.33,62.33,0,0,0-10.39,7.48,10.34,10.34,0,0,0-2.57,3.2,5.11,5.11,0,0,0-.62,2.9,8,8,0,0,0,.49,2,4.23,4.23,0,0,0,.74,1.21,4.84,4.84,0,0,0,1.25.93,9.17,9.17,0,0,0,2.23.76,8.49,8.49,0,0,0,3.71-.13,17.53,17.53,0,0,0,4.81-1.92,22.1,22.1,0,0,1,6.3-2.35,25.86,25.86,0,0,1,7.19-.48,20.25,20.25,0,0,1,7.61,2.16,24.24,24.24,0,0,1,7.08,5.37q6.9,7.41,5.67,15.26t-11.46,17.34A121.21,121.21,0,0,1,601.19,689a1.32,1.32,0,0,1-.94.22,1.53,1.53,0,0,1-.92-.48l-8.25-10.81a1.28,1.28,0,0,1-.26-1.09,1.34,1.34,0,0,1,.67-.91,61.48,61.48,0,0,0,10-7.2,10.88,10.88,0,0,0,2.62-3.25,5.1,5.1,0,0,0,.62-2.85,8.25,8.25,0,0,0-.52-2,4.73,4.73,0,0,0-.77-1.23,4.78,4.78,0,0,0-1.24-.93,10.27,10.27,0,0,0-2.21-.79,8.09,8.09,0,0,0-3.69.12,17.6,17.6,0,0,0-4.81,1.91,21.67,21.67,0,0,1-6.32,2.38,27.12,27.12,0,0,1-7.14.48,20.41,20.41,0,0,1-7.64-2.14,24.18,24.18,0,0,1-7.13-5.37q-6.62-7.11-4.94-15.65t10.73-17a146.7,146.7,0,0,1,11.69-9.65,1.32,1.32,0,0,1,.94-.21A1.44,1.44,0,0,1,582.59,613.05Z"/><path class="cls-2" d="M612.8,572.11a1.23,1.23,0,0,1,.27-.93l10.58-14.11a1.28,1.28,0,0,1,.87-.52,1.36,1.36,0,0,1,1,.3l53.33,40a1.35,1.35,0,0,1,.57.91,1.3,1.3,0,0,1-.25,1l-10.09,13.44a1.25,1.25,0,0,1-.86.52,1.38,1.38,0,0,1-1-.3l-26.94-20.2,14.26,17.2a1.19,1.19,0,0,1,.05,1.68l-10.5,14a1.2,1.2,0,0,1-1.63.43L622,616.57l26.95,20.21a1.31,1.31,0,0,1,.55.93,1.38,1.38,0,0,1-.28,1l-10,13.39a1.35,1.35,0,0,1-.91.57,1.31,1.31,0,0,1-1-.29l-53.33-40a1.32,1.32,0,0,1-.27-1.95l10.54-14.05a1.22,1.22,0,0,1,.81-.52c2.66-.37,6.7-.08,12.13.9A144.07,144.07,0,0,1,621.46,600l6.15,1.74-1.45-2.29c-.62-1-1.72-2.83-3.32-5.53s-3-5.24-4.31-7.62-2.5-4.92-3.64-7.63A28.28,28.28,0,0,1,612.8,572.11Z"/><path class="cls-2" d="M634.36,538.93a36.74,36.74,0,0,1,11.79-26,37.26,37.26,0,0,1,11.9-7.49,36.48,36.48,0,0,1,13.77-2.36,34.74,34.74,0,0,1,14,3.15,35.15,35.15,0,0,1,11.63,8.48,36.82,36.82,0,0,1-28,61.65,35.43,35.43,0,0,1-25.64-11.64,36.45,36.45,0,0,1-7.28-11.92A37.1,37.1,0,0,1,634.36,538.93Zm42,16.49a17,17,0,0,0,9.84-21.68,16.43,16.43,0,0,0-21.37-9.7A17,17,0,0,0,655,545.72a16.43,16.43,0,0,0,21.37,9.7Z"/><path class="cls-1" d="M1282.74,237h115.51a68.13,68.13,0,0,1,26.44,5.14,66,66,0,0,1,21.81,14.76q9.49,9.61,15,24.9a100.26,100.26,0,0,1,5.52,34.26,104.5,104.5,0,0,1-2,21.82c-1.38,6.34-2.74,10.61-4.11,12.84l-2.06,3.08a34.18,34.18,0,0,0,2.19,2.69,67.61,67.61,0,0,1,5.13,7.57,115.51,115.51,0,0,1,6.42,12.07,83,83,0,0,1,5.13,16,88.83,88.83,0,0,1,2.18,19.64,108.67,108.67,0,0,1-5.51,35.68q-5.53,15.92-14.89,25.8a65.86,65.86,0,0,1-21.31,15.14,62.58,62.58,0,0,1-25.54,5.26H1282.74ZM1353,302.47v34.47a2.39,2.39,0,0,0,2.7,2.7H1380a20.23,20.23,0,0,0,19.93-20.07,18.89,18.89,0,0,0-5.92-14,19.39,19.39,0,0,0-14-5.79h-24.23A2.38,2.38,0,0,0,1353,302.47Zm39,141.11A19.77,19.77,0,0,0,1412,423.79a19.54,19.54,0,0,0-5.79-14.14,19.06,19.06,0,0,0-14.14-5.92h-36.35a2.38,2.38,0,0,0-2.7,2.69v34.47a2.38,2.38,0,0,0,2.7,2.69Z"/><path class="cls-1" d="M898.91,171.73,886.25,185.1l4.53,7.81-11.38,12-24.56-50.41L867,141.68l51.68,21.76L907,175.77Zm-10.56-5.36-17.69-8.77,9.77,17.14Z"/><path class="cls-1" d="M888.4,120.53,907,105.21a29,29,0,0,1,10.11-5.83,18.87,18.87,0,0,1,9.13-.33,23,23,0,0,1,8.55,3.86,38.5,38.5,0,0,1,7.46,7q5.36,6.5,6.82,11.29a21.6,21.6,0,0,1,.84,9.37,17.31,17.31,0,0,1-3,7.87,37.38,37.38,0,0,1-6.55,7.25L921.78,161Zm20.08-1.14,18.23,22.14,3.07-2.53q3.93-3.24,4.87-5.47a7.72,7.72,0,0,0,.09-5.18c-.57-2-2.18-4.56-4.86-7.81q-5.29-6.44-9.36-7.08t-8.92,3.36Z"/><path class="cls-1" d="M964.93,126.23,937.07,81.75,960,67.4q6.38-4,10.43-5a12.23,12.23,0,0,1,8,.65A14.46,14.46,0,0,1,985,69a14,14,0,0,1,.81,14.45A19.45,19.45,0,0,1,982,88.19a16.09,16.09,0,0,1,4.61-.6,15.59,15.59,0,0,1,3.66,1A20,20,0,0,1,994,90.11l14.73,8.72-15.53,9.72-15.86-9a12.22,12.22,0,0,0-4.64-1.87,6.74,6.74,0,0,0-4,1.08l-1.22.76,11.31,18Zm-2.76-35.11L968,87.49a24.05,24.05,0,0,0,3.27-2.88,4.36,4.36,0,0,0,1.35-2.8,5.31,5.31,0,0,0-4.19-5.57q-2.08-.3-5.85,2.06l-6,3.78Z"/><path class="cls-1" d="M990.15,50.36l14.6-7.14,23.06,47.15-14.6,7.14Z"/><path class="cls-1" d="M1064.36,66.56,1047,72.77l.52,9L1032,87.38l.86-56.07,16.66-6,36.27,42.76-16,5.73Zm-7-9.55L1045.54,41.2l1,19.7Z"/><path class="cls-1" d="M1079.41,15.89l14.9-2.77,24.74,24.93L1113.73,9.5l15-2.8,9.6,51.61-15,2.79-24.6-24.73L1104,64.7l-15,2.79Z"/><path class="cls-1" d="M1172.54,4h30.36q7.59,0,11.66,3.76a12.16,12.16,0,0,1,4.06,9.31,11.71,11.71,0,0,1-2.9,8,12.92,12.92,0,0,1-5.65,3.51q5.65,1.36,8.32,4.67a12.86,12.86,0,0,1,2.67,8.33,14.29,14.29,0,0,1-1.9,7.34,13.87,13.87,0,0,1-5.19,5.15,17.1,17.1,0,0,1-6.16,1.72,70.47,70.47,0,0,1-7.27.72h-28Zm16.37,20.59h7q3.8,0,5.28-1.31a4.77,4.77,0,0,0,1.49-3.78,4.5,4.5,0,0,0-1.49-3.58c-1-.86-2.72-1.29-5.17-1.29h-7.17Zm0,20.62h8.27q4.18,0,5.91-1.49a5,5,0,0,0,1.71-4,4.6,4.6,0,0,0-1.7-3.74q-1.69-1.41-6-1.41h-8.23Z"/><path class="cls-1" d="M1259.44,54.25l-18.16-3.08-4,8.12L1221,56.53,1249.2,8.07,1266.64,11l10.68,55.05-16.74-2.84ZM1258,42.5l-2.56-19.57-8.8,17.64Z"/><path class="cls-1" d="M1296.78,17.4l23,7.36a28.87,28.87,0,0,1,10.37,5.36,18.67,18.67,0,0,1,5.2,7.5,22.81,22.81,0,0,1,1.39,9.28A39.27,39.27,0,0,1,1334.81,57q-2.57,8-5.81,11.84a21.54,21.54,0,0,1-7.44,5.77,17.25,17.25,0,0,1-8.23,1.74,37.8,37.8,0,0,1-9.64-1.59l-22.94-7.36Zm11.81,16.27L1299.83,61l3.79,1.22q4.83,1.54,7.23,1.13a7.66,7.66,0,0,0,4.41-2.72q2-2.31,3.94-8.3,2.55-8,.9-11.71t-7.65-5.69Z"/><path class="cls-1" d="M1354.94,37.71l14.89,6.52-21.06,48.08-14.89-6.52Z"/><path class="cls-1" d="M1383.67,50.5l14.21,7.81L1378.83,93,1401,105.17l-6.22,11.33-36.4-20Z"/><path class="cls-1" d="M1429.93,76.88l13.27,9.31-22.71,32.4,20.72,14.53-7.42,10.58-34-23.84Z"/><path class="cls-1" d="M1468.47,162.3l-13.8-12.18-7.65,4.8-12.42-11,49.53-26.3,13.26,11.71-20,52.41-12.73-11.24Zm5-10.73,8.15-18-16.79,10.35Z"/><path class="cls-2" d="M1073.34,244.24a4.62,4.62,0,0,1,4.6,3.32l90.51,244.16a4.81,4.81,0,0,1,.25,1.53V495a4.8,4.8,0,0,1-4.85,4.86H1101a4.37,4.37,0,0,1-4.6-3.33L1082.8,460H1001l-13.8,36.56a4.39,4.39,0,0,1-4.61,3.33H920a5,5,0,0,1-3.71-1.41,4.69,4.69,0,0,1-1.41-3.45v-1.79a7.56,7.56,0,0,1,.26-1.79l90.5-243.9a4.63,4.63,0,0,1,4.6-3.32Zm-49.08,152.88h35.28l-17.9-47.29Z"/><path class="cls-3" d="M1147.73,379.15s33.42,6.28,42.43,3,15.77-43.52-13.9-50.46-37.92-4.69-53.69,14.08C1122.57,345.72,1116.56,369,1147.73,379.15Z"/><path class="cls-3" d="M1122.1,307.42v33s11-20.65,43.27-16.52C1165.37,323.94,1149.05,293.9,1122.1,307.42Z"/><path class="cls-3" d="M1119.19,303.92V344.6s-45.06,2-44.31-24.18S1119.19,303.92,1119.19,303.92Z"/><path class="cls-3" d="M1050.47,330s21,3.67,24.4-1.92c0,0,5.26,21.07,41.31,19.57C1116.18,347.6,1067.74,388.91,1050.47,330Z"/><path class="cls-3" d="M1109.42,249.59c1.29-.41-49.94,42.86-52.57,73.82,0,0-17.27,2.79-24.41-13.74S1047.09,269.49,1109.42,249.59Z"/><path class="cls-3" d="M1062.4,322.19s14.73-44.06,42.52-60.21c0,0-14.65,17.28-14.65,21s5.63,10.66-11.64,20.91c0,0-6.91,5.64-8.33,18.27Z"/><path class="cls-3" d="M1113.18,249.59c1.5.38,15.39,0,15.39,0s20.19,15,15.17,28.92l-21.64,8.08-8.92-10.71s2.25-9.63-3.73-10.89l4.48-7.89-7.14.75Z"/><path class="cls-3" d="M1116.18,350.6s7.08,35.3,24.57,42.44c0,0,.13,19.48,3,25.51,0,0-36.19-18.28-37-59.07l2.66-3.93s4.67,28.1,16.22,35.61c0,0-12.17-21.91-12.87-34.29Z"/><path class="cls-3" d="M1194.29,387l3.55,4.88-1.77,11.33-4,12.33h-24.41S1158.61,392.66,1194.29,387Z"/><path class="cls-3" d="M1172.51,419.48l19.15-.93,6,7.16-1.54,6.76-5.26,10.67s-24.94,2.47-24.3-7.67S1172.51,419.48,1172.51,419.48Z"/><path class="cls-3" d="M1169.13,460.25c-.78-1.28-2.25-15.39,22.53-14.64l6,8.4v24.27S1180,478.28,1169.13,460.25Z"/><path class="cls-3" d="M1141.34,383.08S1162,389.28,1177,387c0,0-21.6,9.28-11.64,32.45,0,0-9.56,10.45,1.23,23.92l-3.1,12.72s-13.9-6-11.64-31.17a21.09,21.09,0,0,1-7.32-14.26l3.56.37s2.63,10.47,11.08,7.49c0,0-7.7-4.49-8.08-11.24,0,0-8.24.75-6.56-9.77l3.94,1.5s-1.42,6.76,11.49,7.51c0,0-8.49-2.62-7.36-9,0,0-8.32-1-8.87-10.51l6.24,2.63s-1.5,5.25,2.75,6l2.13.62s-.63,2.63,6.26,2.13c0,0-7.89-2.75-7-8.39Z"/><path class="cls-3" d="M1173,328s6-5,9.15-11.22c0,0,10.13,9.76,11.13,14.77v-8l9.76.61v6.39s4.26-9.52,12-13.77c0,0,5.25,9.17,8.51,11.22,0,0-14.27,1.55-25.29,15.56A33.27,33.27,0,0,0,1173,328Z"/><path class="cls-3" d="M1251.19,379.15s-33.42,6.28-42.43,3-15.77-43.52,13.89-50.46,37.93-4.69,53.7,14.08C1276.35,345.72,1282.36,369,1251.19,379.15Z"/><path class="cls-3" d="M1276.82,307.42v33s-11-20.65-43.28-16.52C1233.54,323.94,1249.87,293.9,1276.82,307.42Z"/><path class="cls-3" d="M1279.73,303.92V344.6s45.06,2,44.31-24.18S1279.73,303.92,1279.73,303.92Z"/><path class="cls-3" d="M1348.45,330s-21,3.67-24.4-1.92c0,0-5.26,21.07-41.31,19.57C1282.74,347.6,1331.18,388.91,1348.45,330Z"/><path class="cls-3" d="M1289.5,249.59c-1.29-.41,49.94,42.86,52.57,73.82,0,0,17.27,2.79,24.41-13.74S1351.83,269.49,1289.5,249.59Z"/><path class="cls-3" d="M1336.52,322.19S1321.79,278.13,1294,262c0,0,14.65,17.28,14.65,21s-5.64,10.66,11.64,20.91c0,0,6.91,5.64,8.33,18.27Z"/><path class="cls-3" d="M1285.74,249.59c-1.5.38-15.4,0-15.4,0s-20.18,15-15.16,28.92l21.64,8.08,8.92-10.71s-2.25-9.63,3.73-10.89L1285,257.1l7.13.75Z"/><path class="cls-3" d="M1282.74,350.6s-7.08,35.3-24.57,42.44c0,0-.13,19.48-3,25.51,0,0,36.19-18.28,36.94-59.07l-2.65-3.93s-4.68,28.1-16.22,35.61c0,0,12.17-21.91,12.87-34.29Z"/><path class="cls-3" d="M1204.63,387l-3.55,4.88,1.77,11.33,4,12.33h24.41S1240.3,392.66,1204.63,387Z"/><path class="cls-3" d="M1226.41,419.48l-19.15-.93-6,7.16,1.54,6.76,5.26,10.67s24.94,2.47,24.3-7.67S1226.41,419.48,1226.41,419.48Z"/><path class="cls-3" d="M1229.79,460.25c.78-1.28,2.25-15.39-22.53-14.64l-6,8.4v24.27S1218.9,478.28,1229.79,460.25Z"/><path class="cls-3" d="M1257.58,383.08s-20.66,6.2-35.68,3.95c0,0,21.61,9.28,11.64,32.45,0,0,9.57,10.45-1.22,23.92l3.1,12.72s13.9-6,11.64-31.17a21.09,21.09,0,0,0,7.32-14.26l-3.56.37s-2.63,10.47-11.08,7.49c0,0,7.7-4.49,8.07-11.24,0,0,8.25.75,6.57-9.77l-3.94,1.5s1.42,6.76-11.49,7.51c0,0,8.49-2.62,7.36-9,0,0,8.32-1,8.87-10.51l-6.24,2.63s1.5,5.25-2.75,6l-2.13.62s.62,2.63-6.26,2.13c0,0,7.89-2.75,7-8.39Z"/><path class="cls-3" d="M1226.21,265.48s4.69-35.82-27.41-36.7v0h-.51v0c-32.09.88-27.41,36.7-27.41,36.7s-5.25-2.36-4.57,3.39.68,18.44,4.57,17.6c0,0,10,34.75,27.92,33.06,17.93,1.69,27.41-33.06,27.41-33.06,3.9.84,3.9-11.85,4.57-17.6S1226.21,265.48,1226.21,265.48Z"/><path class="cls-1" d="M907.87,552.53a1.27,1.27,0,0,1,.06,1,1.37,1.37,0,0,1-.74.78l-12.47,6a1.39,1.39,0,0,1-1,.07,1.23,1.23,0,0,1-.78-.66l-10.26-21.41-8.89,4.25,8.91,18.6a1.27,1.27,0,0,1,.06,1,1.26,1.26,0,0,1-.68.75l-12.52,6a1.27,1.27,0,0,1-1,.06,1.29,1.29,0,0,1-.75-.68l-8.91-18.6-22.61,10.83a1.28,1.28,0,0,1-1.08.06,1.41,1.41,0,0,1-.77-.71l-7.23-15.09a1.35,1.35,0,0,1-.09-1.07,1.37,1.37,0,0,1,.74-.78l60.12-28.8A1.35,1.35,0,0,1,889,514a1.37,1.37,0,0,1,.78.74Z"/><path class="cls-1" d="M858.92,604.8l-8.72-14.28a1.37,1.37,0,0,1-.2-1.06,1.34,1.34,0,0,1,.66-.85l56.89-34.73a1.37,1.37,0,0,1,1.06-.2,1.41,1.41,0,0,1,.85.66l8.72,14.29a1.39,1.39,0,0,1,.18,1,1.29,1.29,0,0,1-.64.88l-56.89,34.74a1.36,1.36,0,0,1-1.08.17A1.41,1.41,0,0,1,858.92,604.8Z"/><path class="cls-1" d="M942.11,605.35l-11.57,7.17a1.38,1.38,0,0,1-1.08.13,1.16,1.16,0,0,1-.82-.68,63.25,63.25,0,0,0-6.44-11.07,10.31,10.31,0,0,0-2.94-2.87,5.21,5.21,0,0,0-2.83-.9,8,8,0,0,0-2,.3,4.07,4.07,0,0,0-1.27.62,4.74,4.74,0,0,0-1,1.15,9.08,9.08,0,0,0-1,2.14,8.62,8.62,0,0,0-.23,3.71,17.8,17.8,0,0,0,1.44,5,21.8,21.8,0,0,1,1.73,6.49,25.79,25.79,0,0,1-.22,7.21,20.31,20.31,0,0,1-2.89,7.36,24.55,24.55,0,0,1-6,6.52q-8.05,6.17-15.74,4.16T873,628.68a120.7,120.7,0,0,1-8.27-12.2,1.31,1.31,0,0,1-.12-1,1.47,1.47,0,0,1,.56-.86l11.56-7.17a1.29,1.29,0,0,1,1.11-.15,1.34,1.34,0,0,1,.84.76,62,62,0,0,0,6.2,10.64,10.62,10.62,0,0,0,3,2.92,5,5,0,0,0,2.78.89,7.63,7.63,0,0,0,2-.32,4.5,4.5,0,0,0,1.3-.64,4.93,4.93,0,0,0,1-1.15,10.12,10.12,0,0,0,1-2.12,8.26,8.26,0,0,0,.25-3.68,17.8,17.8,0,0,0-1.44-5,21.24,21.24,0,0,1-1.75-6.52,26.53,26.53,0,0,1,.21-7.15,20.34,20.34,0,0,1,2.87-7.4,24.16,24.16,0,0,1,6-6.57q7.72-5.89,16-3.39T934.08,591a142.75,142.75,0,0,1,8.47,12.58,1.3,1.3,0,0,1,.12,1A1.47,1.47,0,0,1,942.11,605.35Z"/><path class="cls-1" d="M907.93,666.49l-11.48-12.18a1.31,1.31,0,0,1,.06-2L945,606.62a1.31,1.31,0,0,1,2,.06l11.48,12.17a1.45,1.45,0,0,1,.39,1,1.35,1.35,0,0,1-.45,1L909.9,666.54a1.3,1.3,0,0,1-1,.39A1.41,1.41,0,0,1,907.93,666.49Z"/><path class="cls-1" d="M968.62,687.89l3.7,16.7a1.36,1.36,0,0,1-.2,1,1.22,1.22,0,0,1-.82.58,36.87,36.87,0,0,1-16-.2,36.66,36.66,0,0,1-23.78-18.35,35.55,35.55,0,0,1-2.89-27.22,35.85,35.85,0,0,1,17.76-21.85,36.49,36.49,0,0,1,13.33-4.07,37,37,0,0,1,13.9,1.33,36.41,36.41,0,0,1,22.82,19.49,36.45,36.45,0,0,1,3.48,15.53,1.47,1.47,0,0,1-.44,1,1.37,1.37,0,0,1-1,.39l-17-.26a1.3,1.3,0,0,1-.93-.35,1.25,1.25,0,0,1-.39-.9,19.75,19.75,0,0,0-1.75-7.15,15.48,15.48,0,0,0-4.37-5.79,16.59,16.59,0,1,0-20.94,25.75,15.66,15.66,0,0,0,6.6,3.12,19,19,0,0,0,7.42.22,1.2,1.2,0,0,1,1,.2A1.3,1.3,0,0,1,968.62,687.89Z"/><path class="cls-1" d="M1020.23,669.79a36.73,36.73,0,0,1,25.22,13.36,37.09,37.09,0,0,1,6.74,12.34,36.46,36.46,0,0,1,1.52,13.88,35.49,35.49,0,0,1-13.18,24.88,36.21,36.21,0,0,1-12.37,6.57,36.8,36.8,0,0,1-47.45-38.27,35.49,35.49,0,0,1,13.19-24.88,36.6,36.6,0,0,1,12.34-6.54A37.15,37.15,0,0,1,1020.23,669.79Zm-19,41a17,17,0,0,0,21,11.15,16.43,16.43,0,0,0,11-20.74,17,17,0,0,0-21-11.15,16.43,16.43,0,0,0-11,20.74Z"/><path class="cls-1" d="M1100.66,748.52l10,13.88a1.31,1.31,0,0,1,.22,1,1.2,1.2,0,0,1-.53.86,36.86,36.86,0,0,1-14.77,6.13,36.67,36.67,0,0,1-29.09-7.46,35.53,35.53,0,0,1-13.4-23.87,35.8,35.8,0,0,1,7.68-27.09,36.19,36.19,0,0,1,10.64-9,37,37,0,0,1,13.3-4.28,36.46,36.46,0,0,1,28.66,8.89,36.5,36.5,0,0,1,9.33,12.9,1.44,1.44,0,0,1,0,1.08,1.34,1.34,0,0,1-.71.73l-15.78,6.5a1.28,1.28,0,0,1-1,0,1.18,1.18,0,0,1-.71-.67,19.85,19.85,0,0,0-4.44-5.88,15.55,15.55,0,0,0-6.3-3.59,16.6,16.6,0,1,0-9.06,31.93,15.8,15.8,0,0,0,7.29.26,19.1,19.1,0,0,0,6.91-2.73,1.2,1.2,0,0,1,.95-.2A1.31,1.31,0,0,1,1100.66,748.52Z"/><path class="cls-1" d="M1182.63,713.11a1.32,1.32,0,0,1,.91.46,1.3,1.3,0,0,1,.3,1l-3.51,41.58a35.14,35.14,0,0,1-1.57,7.85,27.48,27.48,0,0,1-3.76,7.34,23.75,23.75,0,0,1-15,9.88,38.5,38.5,0,0,1-11.93.7,38,38,0,0,1-11.62-2.69,25.48,25.48,0,0,1-8.2-5.22,25.2,25.2,0,0,1-5-7,27.4,27.4,0,0,1-2.47-7.88,34.86,34.86,0,0,1-.23-8l3.51-41.58a1.32,1.32,0,0,1,.46-.91,1.3,1.3,0,0,1,1-.3l16.74,1.42a1.39,1.39,0,0,1,.94.46,1.25,1.25,0,0,1,.33,1l-3.54,41.92a15.43,15.43,0,0,0,.18,4.1,12.14,12.14,0,0,0,1.39,3.77,8.07,8.07,0,0,0,3.09,3,11.64,11.64,0,0,0,4.9,1.43,11.78,11.78,0,0,0,5.06-.58,7.79,7.79,0,0,0,3.52-2.46,13.41,13.41,0,0,0,2-3.49,14.69,14.69,0,0,0,.9-4l3.54-41.93a1.24,1.24,0,0,1,.46-.9,1.26,1.26,0,0,1,1-.3Z"/><path class="cls-1" d="M1228.77,777.44a1.38,1.38,0,0,1-.3,1,1.31,1.31,0,0,1-.91.45l-38.64,2.86a1.34,1.34,0,0,1-1-.3,1.37,1.37,0,0,1-.45-1L1182.51,714a1.34,1.34,0,0,1,.31-1,1.36,1.36,0,0,1,1-.46l16.69-1.23a1.36,1.36,0,0,1,1,.31,1.3,1.3,0,0,1,.49,1l3.83,51.72,20.5-1.52a1.4,1.4,0,0,1,1,.31,1.37,1.37,0,0,1,.45,1Z"/><path class="cls-1" d="M1261.72,703.75l2.47,13.59a1.28,1.28,0,0,1-.24,1,1.43,1.43,0,0,1-.89.55l-15,2.71,9.19,50.69a1.36,1.36,0,0,1-.23,1.07,1.43,1.43,0,0,1-.89.55l-16.54,3a1.33,1.33,0,0,1-1-.21,1.39,1.39,0,0,1-.55-.93l-9.19-50.69-15,2.72a1.4,1.4,0,0,1-1.06-.2,1.23,1.23,0,0,1-.54-.85l-2.47-13.6a1.37,1.37,0,0,1,.2-1.06,1.34,1.34,0,0,1,.92-.55l49.12-8.91a1.36,1.36,0,0,1,1,.2A1.29,1.29,0,0,1,1261.72,703.75Z"/><path class="cls-1" d="M1314.88,683.13a1.23,1.23,0,0,1,1,0,1.27,1.27,0,0,1,.68.74l14.36,39.18a34.9,34.9,0,0,1,1.89,7.78,27.43,27.43,0,0,1-.3,8.24,25.65,25.65,0,0,1-3,8.11,25.33,25.33,0,0,1-6.53,7.2,42,42,0,0,1-22.2,8.14,25.69,25.69,0,0,1-9.63-1.28,25,25,0,0,1-7.52-4.27,27.29,27.29,0,0,1-5.56-6.09,34.76,34.76,0,0,1-3.59-7.16l-14.36-39.18a1.27,1.27,0,0,1,0-1,1.29,1.29,0,0,1,.75-.68l15.77-5.78a1.41,1.41,0,0,1,1,0,1.26,1.26,0,0,1,.71.74l14.48,39.5a15.1,15.1,0,0,0,1.89,3.64,12.2,12.2,0,0,0,2.85,2.84,8,8,0,0,0,4.07,1.42,12.87,12.87,0,0,0,9.39-3.44,7.73,7.73,0,0,0,2.15-3.71,13.34,13.34,0,0,0,.34-4,14.59,14.59,0,0,0-.87-4l-14.48-39.51a1.27,1.27,0,0,1,0-1,1.32,1.32,0,0,1,.75-.68Z"/><path class="cls-1" d="M1377.64,699.4q11.67,3.89,19.2,16a1.37,1.37,0,0,1,.16,1,1.26,1.26,0,0,1-.66.86l-15.54,9.06a1.22,1.22,0,0,1-1,.14,1.26,1.26,0,0,1-.8-.61q-4.53-7.1-10.18-9A15.09,15.09,0,0,0,1357,718l9,15.35a1.36,1.36,0,0,1,.13,1,1.32,1.32,0,0,1-.63.85L1351,743.71a1.31,1.31,0,0,1-1.08.15,1.44,1.44,0,0,1-.82-.65L1315,684.72a1.36,1.36,0,0,1-.18-1.06,1.39,1.39,0,0,1,.68-.84l28.43-16.57a20.89,20.89,0,0,1,7.73-2.74,18.81,18.81,0,0,1,7.93.65,20.66,20.66,0,0,1,7.77,4.51,34.65,34.65,0,0,1,6.91,8.67Q1381.4,689.58,1377.64,699.4Zm-37.39-10.11,7.45,12.78a.55.55,0,0,0,.85.23l6.9-4a6.75,6.75,0,0,0,3.31-4.46,9.34,9.34,0,0,0-5.88-10.08,6.7,6.7,0,0,0-5.51.68l-6.9,4A.55.55,0,0,0,1340.25,689.29Z"/><path class="cls-1" d="M1417.2,699.85l-13.36,10.07a1.31,1.31,0,0,1-1.94-.27l-40.12-53.24a1.35,1.35,0,0,1-.3-1,1.33,1.33,0,0,1,.58-.91l13.36-10.07a1.4,1.4,0,0,1,1-.28,1.3,1.3,0,0,1,.94.55l40.11,53.24a1.28,1.28,0,0,1,.27,1.05A1.38,1.38,0,0,1,1417.2,699.85Z"/><path class="cls-1" d="M1409.59,617.05l8.26,10.81a1.37,1.37,0,0,1,.23,1.07,1.16,1.16,0,0,1-.59.89,62.33,62.33,0,0,0-10.39,7.48,10.34,10.34,0,0,0-2.57,3.2,5.11,5.11,0,0,0-.62,2.9,8,8,0,0,0,.49,2,4.23,4.23,0,0,0,.74,1.21,4.84,4.84,0,0,0,1.25.93,9.17,9.17,0,0,0,2.23.76,8.49,8.49,0,0,0,3.71-.13,17.53,17.53,0,0,0,4.81-1.92,22.1,22.1,0,0,1,6.3-2.35,25.86,25.86,0,0,1,7.19-.48,20.25,20.25,0,0,1,7.61,2.16,24.24,24.24,0,0,1,7.08,5.37q6.9,7.41,5.67,15.26t-11.46,17.34a121.21,121.21,0,0,1-11.34,9.42,1.32,1.32,0,0,1-.94.22,1.53,1.53,0,0,1-.92-.48l-8.25-10.81a1.28,1.28,0,0,1-.26-1.09,1.34,1.34,0,0,1,.67-.91,61.48,61.48,0,0,0,10-7.2,10.88,10.88,0,0,0,2.62-3.25,5.1,5.1,0,0,0,.62-2.85,8.25,8.25,0,0,0-.52-2,4.73,4.73,0,0,0-.77-1.23,4.78,4.78,0,0,0-1.24-.93,10.27,10.27,0,0,0-2.21-.79,8.09,8.09,0,0,0-3.69.12,17.6,17.6,0,0,0-4.81,1.91,21.67,21.67,0,0,1-6.32,2.38,27.12,27.12,0,0,1-7.14.48,20.41,20.41,0,0,1-7.64-2.14,24.18,24.18,0,0,1-7.13-5.37q-6.62-7.11-4.94-15.65t10.73-17a146.7,146.7,0,0,1,11.69-9.65,1.32,1.32,0,0,1,.94-.21A1.44,1.44,0,0,1,1409.59,617.05Z"/><path class="cls-1" d="M1439.8,576.11a1.23,1.23,0,0,1,.27-.93l10.58-14.11a1.28,1.28,0,0,1,.87-.52,1.36,1.36,0,0,1,1,.3l53.33,40a1.35,1.35,0,0,1,.57.91,1.3,1.3,0,0,1-.25,1l-10.09,13.44a1.25,1.25,0,0,1-.86.52,1.38,1.38,0,0,1-1-.3l-26.94-20.2,14.26,17.2a1.19,1.19,0,0,1,0,1.68l-10.5,14a1.2,1.2,0,0,1-1.63.43L1449,620.57l27,20.21a1.31,1.31,0,0,1,.55.93,1.38,1.38,0,0,1-.28,1l-10,13.39a1.35,1.35,0,0,1-.91.57,1.31,1.31,0,0,1-1-.29l-53.33-40a1.32,1.32,0,0,1-.27-1.95l10.54-14.05a1.22,1.22,0,0,1,.81-.52c2.66-.37,6.7-.08,12.13.9a144.07,144.07,0,0,1,14.36,3.26l6.15,1.74-1.45-2.29c-.62-1-1.72-2.83-3.32-5.53s-3-5.24-4.31-7.62-2.5-4.92-3.64-7.63A28.28,28.28,0,0,1,1439.8,576.11Z"/><path class="cls-1" d="M1461.36,542.93a36.74,36.74,0,0,1,11.79-26,37.26,37.26,0,0,1,11.9-7.49,36.48,36.48,0,0,1,13.77-2.36,34.74,34.74,0,0,1,14,3.15,35.15,35.15,0,0,1,11.63,8.48,36.82,36.82,0,0,1-28,61.65,35.43,35.43,0,0,1-25.64-11.64,36.45,36.45,0,0,1-7.28-11.92A37.1,37.1,0,0,1,1461.36,542.93Zm42,16.49a17,17,0,0,0,9.84-21.68,16.43,16.43,0,0,0-21.37-9.7,17,17,0,0,0-9.84,21.68,16.43,16.43,0,0,0,21.37,9.7Z"/></svg>