<svg id="Capa_1" data-name="Capa 1" xmlns="http://www.w3.org/2000/svg" viewBox="0 0 675.03 679.54"><defs><style>.cls-1{fill:#e20613;}.cls-2,.cls-4,.cls-5{fill:#fff;}.cls-3{fill:#c6c6c5;}.cls-4{stroke:#fff;stroke-miterlimit:10;stroke-width:4px;}.cls-5{font-size:39.62px;font-family:moon_get-Heavy, "MOON GET!";font-weight:800;}</style></defs><path class="cls-1" d="M417.27,204.64h103.1a60.69,60.69,0,0,1,23.6,4.59,58.86,58.86,0,0,1,19.47,13.17q8.47,8.59,13.4,22.22a89.64,89.64,0,0,1,4.93,30.59,92.81,92.81,0,0,1-1.84,19.47q-1.83,8.47-3.66,11.45l-1.84,2.75c.31.46,1,1.26,2,2.41a58.82,58.82,0,0,1,4.58,6.76,100.35,100.35,0,0,1,5.73,10.76,73.77,73.77,0,0,1,4.58,14.32,79,79,0,0,1,2,17.53,96.86,96.86,0,0,1-4.92,31.84q-4.93,14.21-13.29,23A58.58,58.58,0,0,1,556,429a55.88,55.88,0,0,1-22.79,4.7H417.27ZM480,263.05v30.76a2.12,2.12,0,0,0,2.4,2.41H504a18.07,18.07,0,0,0,17.79-17.91,16.86,16.86,0,0,0-5.29-12.5,17.32,17.32,0,0,0-12.5-5.17H482.41A2.13,2.13,0,0,0,480,263.05ZM514.86,389a17.64,17.64,0,0,0,17.78-17.66,17.43,17.43,0,0,0-5.16-12.62,17,17,0,0,0-12.62-5.29H482.41a2.12,2.12,0,0,0-2.4,2.4v30.77a2.12,2.12,0,0,0,2.4,2.4Z"/><path class="cls-2" d="M109.36,127.65,98.68,138.11l3.44,6.48L92.52,154,74.14,112.35l10.26-10,41.25,19.24-9.84,9.65ZM101,123l-14.08-7.65,7.4,14.2Z"/><path class="cls-2" d="M102.41,85.8,118,73.94a23.37,23.37,0,0,1,8.38-4.41,15.23,15.23,0,0,1,7.41,0,18.78,18.78,0,0,1,6.83,3.39,31.86,31.86,0,0,1,5.83,5.93q4.14,5.43,5.19,9.37a17.72,17.72,0,0,1,.39,7.63,14.12,14.12,0,0,1-2.67,6.29,30.31,30.31,0,0,1-5.53,5.68l-15.56,11.86Zm16.32-.31L132.84,104l2.57-2q3.28-2.49,4.11-4.28a6.17,6.17,0,0,0,.24-4.2q-.6-2.41-3.7-6.48c-2.74-3.59-5.19-5.61-7.38-6s-4.62.39-7.34,2.45Z"/><path class="cls-2" d="M164.32,92.78,143.08,55.83l19-10.93a31.62,31.62,0,0,1,8.61-3.74,9.91,9.91,0,0,1,6.44.77,11.74,11.74,0,0,1,5.16,5A11.83,11.83,0,0,1,184.05,53a11.68,11.68,0,0,1-1.52,5.68,16.09,16.09,0,0,1-3.17,3.77,13.28,13.28,0,0,1,3.75-.35,13.51,13.51,0,0,1,2.95.9A16.65,16.65,0,0,1,189,64.36l11.68,7.53L187.76,79.3l-12.59-7.78a10.1,10.1,0,0,0-3.71-1.66,5.5,5.5,0,0,0-3.29.75l-1,.58,8.61,15Zm-1.17-28.57L168,61.45a19.76,19.76,0,0,0,2.73-2.25A3.49,3.49,0,0,0,171.89,57a4.34,4.34,0,0,0-3.23-4.65c-1.12-.2-2.73.29-4.81,1.49l-5,2.88Z"/><path class="cls-2" d="M187.1,32l12.07-5.35,17.26,39L204.36,71Z"/><path class="cls-2" d="M246.8,47.43l-14.25,4.5.14,7.33-12.82,4.06,2.43-45.46L236,13.53l28.11,35.8L251,53.49Zm-5.38-8-9.1-13.18.18,16Z"/><path class="cls-2" d="M260.57,6.78,272.74,5,292,26,288.61,2.66,300.89.85,307.09,43l-12.27,1.81L275.62,24,279,47.14l-12.25,1.8Z"/><path class="cls-2" d="M336.48,0l24.63.93q6.17.24,9.34,3.41a9.88,9.88,0,0,1,3,7.67,9.49,9.49,0,0,1-2.6,6.39,10.45,10.45,0,0,1-4.69,2.67,12,12,0,0,1,6.61,4.05A10.47,10.47,0,0,1,374.69,32a11.71,11.71,0,0,1-1.77,5.9,11.28,11.28,0,0,1-4.37,4,13.93,13.93,0,0,1-5.05,1.21,58.35,58.35,0,0,1-5.91.36l-22.72-.86Zm12.64,17.2,5.73.22q3.07.12,4.32-.9a3.87,3.87,0,0,0,1.32-3,3.66,3.66,0,0,0-1.09-2.95c-.78-.73-2.17-1.13-4.16-1.2l-5.81-.22Zm-.63,16.73,6.71.26q3.41.12,4.84-1A4.1,4.1,0,0,0,361.56,30a3.78,3.78,0,0,0-1.27-3.08c-.89-.8-2.49-1.25-4.79-1.33l-6.68-.25Z"/><path class="cls-2" d="M405.43,43.43l-14.64-3-3.47,6.46-13.16-2.75L398.54,5.65,412.6,8.59l7,45-13.49-2.82Zm-.8-9.58-1.47-16-7.69,14Z"/><path class="cls-2" d="M436.85,14.68l18.39,6.68A23.5,23.5,0,0,1,463.49,26a15.19,15.19,0,0,1,4,6.24,18.64,18.64,0,0,1,.84,7.57A31.45,31.45,0,0,1,466.48,48q-2.33,6.42-5.07,9.42a17.53,17.53,0,0,1-6.21,4.46A14.18,14.18,0,0,1,448.47,63a30.6,30.6,0,0,1-7.77-1.59l-18.39-6.68Zm9.09,13.57L438,50.13l3,1.1a13.7,13.7,0,0,0,5.83,1.15,6.22,6.22,0,0,0,3.66-2.08c1.14-1.2,2.29-3.41,3.46-6.61q2.31-6.37,1.08-9.47t-6-4.85Z"/><path class="cls-2" d="M483.4,32.94l11.88,5.75L476.73,77.05,464.85,71.3Z"/><path class="cls-2" d="M506.32,44.2,517.61,51,501.09,78.52l17.62,10.57-5.4,9L484.4,80.74Z"/><path class="cls-2" d="M543,67l10.49,8L534.1,100.56,550.46,113l-6.34,8.36L517.26,101Z"/><path class="cls-2" d="M571.68,137.5l-10.83-10.31-6.35,3.66-9.74-9.27,41-19.81,10.4,9.91-17.8,41.89-10-9.51Zm4.38-8.56,7.15-14.33-13.93,7.88Z"/><path class="cls-2" d="M230.39,211.07a4.14,4.14,0,0,1,4.11,3L315.27,432a4.38,4.38,0,0,1,.23,1.37v1.6a4.29,4.29,0,0,1-4.34,4.33H255a3.88,3.88,0,0,1-4.1-3l-12.1-32.62h-73l-12.32,32.62a3.9,3.9,0,0,1-4.1,3H93.48A4.47,4.47,0,0,1,90.17,438a4.19,4.19,0,0,1-1.25-3.07v-1.6a6.34,6.34,0,0,1,.23-1.6L169.92,214a4.13,4.13,0,0,1,4.11-3ZM186.58,347.52h31.49l-16-42.21Z"/><path class="cls-3" d="M296.78,331.48s29.82,5.61,37.87,2.64,14.07-38.85-12.4-45-33.85-4.19-47.93,12.57C274.32,301.65,269,322.44,296.78,331.48Z"/><path class="cls-3" d="M273.91,267.46V297s9.8-18.44,38.62-14.75C312.53,282.21,298,255.4,273.91,267.46Z"/><path class="cls-3" d="M271.31,264.34v36.3s-40.22,1.76-39.55-21.57S271.31,264.34,271.31,264.34Z"/><path class="cls-3" d="M210,287.57s18.76,3.28,21.78-1.71c0,0,4.7,18.81,36.87,17.46C268.62,303.32,225.39,340.19,210,287.57Z"/><path class="cls-3" d="M262.59,215.85c1.15-.37-44.57,38.26-46.92,65.88,0,0-15.42,2.49-21.78-12.26S207,233.61,262.59,215.85Z"/><path class="cls-3" d="M220.62,280.65s13.15-39.33,37.95-53.74c0,0-13.07,15.42-13.07,18.77s5,9.51-10.39,18.66c0,0-6.17,5-7.44,16.31Z"/><path class="cls-3" d="M265.94,215.85c1.34.34,13.74,0,13.74,0s18,13.41,13.54,25.81l-19.31,7.21-8-9.56s2-8.59-3.33-9.72l4-7-6.36.67Z"/><path class="cls-3" d="M268.62,306s6.32,31.5,21.93,37.87c0,0,.11,17.38,2.67,22.77,0,0-32.3-16.31-33-52.72l2.36-3.51s4.18,25.08,14.48,31.78c0,0-10.86-19.56-11.48-30.6Z"/><path class="cls-3" d="M338.33,338.51l3.18,4.36L339.92,353l-3.6,11H314.54S306.5,343.54,338.33,338.51Z"/><path class="cls-3" d="M318.9,367.47l17.09-.82,5.4,6.38-1.38,6-4.69,9.52s-22.26,2.21-21.69-6.84A25,25,0,0,1,318.9,367.47Z"/><path class="cls-3" d="M315.88,403.87c-.69-1.15-2-13.74,20.11-13.07l5.4,7.5V420S325.6,420,315.88,403.87Z"/><path class="cls-3" d="M291.08,335s18.43,5.54,31.84,3.52c0,0-19.28,8.29-10.39,29,0,0-8.54,9.34,1.09,21.36l-2.77,11.35s-12.4-5.36-10.39-27.82a18.84,18.84,0,0,1-6.53-12.73l3.18.33s2.35,9.35,9.89,6.69c0,0-6.87-4-7.21-10,0,0-7.36.67-5.86-8.71l3.52,1.34s-1.27,6,10.26,6.7c0,0-7.58-2.34-6.58-8,0,0-7.42-.86-7.91-9.39l5.57,2.35s-1.34,4.69,2.45,5.36l1.9.56s-.55,2.35,5.59,1.9c0,0-7-2.46-6.26-7.48Z"/><path class="cls-3" d="M319.34,285.86a35.91,35.91,0,0,0,8.17-10s9,8.72,9.93,13.19v-7.14l8.71.54v5.7s3.8-8.49,10.73-12.29c0,0,4.69,8.19,7.6,10,0,0-12.74,1.38-22.57,13.89A29.67,29.67,0,0,0,319.34,285.86Z"/><path class="cls-3" d="M389.12,331.48s-29.83,5.61-37.87,2.64-14.08-38.85,12.4-45,33.85-4.19,47.93,12.57C411.58,301.65,416.94,322.44,389.12,331.48Z"/><path class="cls-3" d="M412,267.46V297s-9.8-18.44-38.62-14.75C373.37,282.21,387.94,255.4,412,267.46Z"/><path class="cls-3" d="M414.59,264.34v36.3s40.22,1.76,39.55-21.57S414.59,264.34,414.59,264.34Z"/><path class="cls-3" d="M475.93,287.57s-18.76,3.28-21.78-1.71c0,0-4.7,18.81-36.88,17.46C417.27,303.32,460.51,340.19,475.93,287.57Z"/><path class="cls-3" d="M423.31,215.85c-1.15-.37,44.57,38.26,46.92,65.88,0,0,15.41,2.49,21.78-12.26S478.94,233.61,423.31,215.85Z"/><path class="cls-3" d="M465.28,280.65s-13.15-39.33-37.95-53.74c0,0,13.07,15.42,13.07,18.77s-5,9.51,10.39,18.66c0,0,6.16,5,7.44,16.31Z"/><path class="cls-3" d="M420,215.85c-1.34.34-13.75,0-13.75,0s-18,13.41-13.53,25.81L412,248.87l8-9.56s-2-8.59,3.33-9.72l-4-7,6.36.67Z"/><path class="cls-3" d="M417.27,306s-6.31,31.5-21.92,37.87c0,0-.11,17.38-2.67,22.77,0,0,32.3-16.31,33-52.72l-2.36-3.51s-4.18,25.08-14.48,31.78c0,0,10.86-19.56,11.48-30.6Z"/><path class="cls-3" d="M347.56,338.51l-3.17,4.36L346,353l3.6,11h21.78S379.4,343.54,347.56,338.51Z"/><path class="cls-3" d="M367,367.47l-17.09-.82-5.4,6.38,1.38,6,4.69,9.52s22.26,2.21,21.69-6.84A25.06,25.06,0,0,0,367,367.47Z"/><path class="cls-3" d="M370,403.87c.69-1.15,2-13.74-20.11-13.07l-5.4,7.5V420S360.3,420,370,403.87Z"/><path class="cls-3" d="M394.82,335s-18.43,5.54-31.84,3.52c0,0,19.28,8.29,10.39,29,0,0,8.54,9.34-1.09,21.36l2.77,11.35s12.4-5.36,10.39-27.82A18.81,18.81,0,0,0,392,359.63l-3.17.33s-2.35,9.35-9.89,6.69c0,0,6.87-4,7.21-10,0,0,7.36.67,5.85-8.71l-3.51,1.34s1.27,6-10.26,6.7c0,0,7.58-2.34,6.58-8,0,0,7.42-.86,7.91-9.39l-5.57,2.35s1.34,4.69-2.46,5.36l-1.9.56s.56,2.35-5.58,1.9c0,0,7-2.46,6.25-7.48Z"/><path class="cls-3" d="M366.83,230s4.18-32-24.47-32.76v0h-.45v0c-28.65.78-24.47,32.76-24.47,32.76s-4.68-2.12-4.07,3,.6,16.46,4.07,15.7c0,0,8.92,31,24.92,29.51,16,1.51,24.47-29.51,24.47-29.51,3.47.76,3.47-10.57,4.08-15.7S366.83,230,366.83,230Z"/><path class="cls-4" d="M648.91,194.67s63.44,126.05-15.45,313.77c0,0-5.41,3.56-3.52-4.12S699.23,343.52,644.69,197C644.69,197,642.74,185.61,648.91,194.67Z"/><path class="cls-4" d="M26.12,195.1s-63.44,126,15.45,313.77c0,0,5.41,3.56,3.53-4.12S-24.2,344,30.34,197.42C30.34,197.42,32.29,186,26.12,195.1Z"/><text class="cls-5" transform="matrix(0.88, 0.6, -0.57, 0.82, 95.46, 561.33)">F</text><text class="cls-5" transform="translate(120.29 578.05) rotate(31.62) scale(1.07 1)">I</text><text class="cls-5" transform="matrix(0.94, 0.52, -0.48, 0.87, 132.58, 585.79)">S</text><text class="cls-5" transform="matrix(0.96, 0.48, -0.44, 0.9, 159.45, 600.44)">I</text><text class="cls-5" transform="matrix(0.98, 0.42, -0.39, 0.92, 172.54, 607.36)">C</text><text class="cls-5" transform="translate(209.27 623.19) rotate(17.71) scale(1.07 1)">O</text><text class="cls-5" transform="translate(255.81 637.8) rotate(11.34) scale(1.07 1)">C</text><text class="cls-5" transform="translate(298.64 646.19) rotate(4.94) scale(1.07 1)">U</text><text class="cls-5" transform="translate(338.82 649.28) rotate(-0.72) scale(1.07 1)">L</text><text class="cls-5" transform="matrix(1.07, -0.09, 0.08, 1, 358.77, 649.38)">T</text><text class="cls-5" transform="matrix(1.05, -0.21, 0.2, 0.98, 394.78, 646.39)">U</text><text class="cls-5" transform="translate(434.62 638.07) rotate(-18.33) scale(1.07 1)">R</text><text class="cls-5" transform="translate(469.55 625.96) rotate(-22.79) scale(1.07 1)">I</text><text class="cls-5" transform="translate(483.4 620.36) rotate(-26.59) scale(1.07 1)">S</text><text class="cls-5" transform="matrix(0.9, -0.58, 0.54, 0.84, 511.9, 606.34)">M</text><text class="cls-5" transform="translate(550.86 581.21) rotate(-39.26) scale(1.07 1)">O</text></svg>